<svg width="12" height="13" viewBox="0 0 12 13" fill="none" xmlns="http://www.w3.org/2000/svg">
<path d="M5.71289 0.000244141C3.82284 0.000244141 2.28516 1.53793 2.28516 3.42798C2.28516 5.31803 3.82284 6.85571 5.71289 6.85571C7.60294 6.85571 9.14062 5.31803 9.14062 3.42798C9.14062 1.53793 7.60294 0.000244141 5.71289 0.000244141Z" fill="#BED8E8"/>
<path d="M9.97765 9.09504C9.03922 8.14218 7.79515 7.61743 6.47461 7.61743H4.95117C3.63066 7.61743 2.38657 8.14218 1.44813 9.09504C0.514287 10.0432 0 11.2948 0 12.6194C0 12.8297 0.170523 13.0002 0.380859 13.0002H11.0449C11.2553 13.0002 11.4258 12.8297 11.4258 12.6194C11.4258 11.2948 10.9115 10.0432 9.97765 9.09504Z" fill="#BED8E8"/>
</svg>
