<svg width="101" height="78" viewBox="0 0 101 78" fill="none" xmlns="http://www.w3.org/2000/svg">
<path d="M19.9043 58.7877C20.1637 58.8121 20.2026 59.2344 20.3412 59.4306C20.7635 59.3917 20.4652 58.945 20.3266 58.7488C20.8454 58.7975 21.382 59.2142 21.6471 59.7362C21.7403 60.1375 21.2669 59.8837 21.3423 59.917C21.1728 60.6076 22.2226 60.5752 21.8059 61.1118C21.4468 61.3136 21.1031 61.0721 20.8859 61.1564C20.7594 60.8305 21.1396 60.683 21.1307 60.499L20.9224 60.7673C20.8259 60.6797 20.7416 60.4625 20.8292 60.366C20.47 60.5678 20.7408 61.5876 20.4538 62.1364C20.5502 62.2239 20.6889 62.4201 20.8307 62.3026L20.7675 62.1396C21.0723 61.9589 21.1533 62.4898 21.3073 62.2426C21.5213 62.472 21.8107 62.7347 21.6778 63.0362L21.2765 63.1294C21.4062 63.1416 21.5059 62.9154 21.3552 62.8489C21.527 62.9697 20.8631 63.3523 21.3486 63.4764L21.6324 63.2413C21.8464 63.4707 22.2987 63.6701 22.1657 63.9717C22.5459 63.8242 22.1447 63.9174 22.5581 63.6945C22.015 63.9052 22.5435 63.0127 21.9672 63.2989C22.5103 63.0881 22.2087 62.9552 22.6011 62.6779C22.4714 62.6658 22.3295 62.7833 22.4292 62.5572C22.3749 62.5782 22.3539 62.5239 22.2995 62.545C22.2663 62.6204 22.1577 62.6625 22.1034 62.6836C21.8018 62.5507 21.784 62.1826 21.6665 62.0408C21.7329 61.89 21.8172 62.1072 21.9802 62.044L21.7329 61.89C22.0466 61.8932 22.2128 61.5163 22.4147 61.8754L22.4179 61.5617C22.593 61.3688 22.6384 61.1637 22.5209 61.0219C22.5874 60.8711 22.2437 60.6295 22.4366 60.8046L22.3223 60.349L22.3766 60.328C22.4463 59.8635 21.943 59.3714 22.5858 58.9345C22.5226 58.7716 22.4594 58.6087 22.6134 58.3614L22.8517 58.3314C22.7674 58.1142 23.2141 57.8159 22.9668 57.6619C23.6818 57.5719 23.3114 56.7783 23.4986 56.4557L23.1639 56.3981C23.2636 56.172 23.2336 55.9337 23.1825 55.641L22.9021 55.5624C22.7213 55.2576 23.2976 54.9715 23.3341 54.5824C23.4306 54.6699 23.3974 54.7453 23.2887 54.7875C24.0702 54.5467 23.1599 53.6502 23.7573 53.4184C23.6941 53.2554 23.7484 53.2343 23.857 53.1922C23.857 53.1922 23.857 53.1922 23.8781 53.2465C23.8781 53.2465 23.8781 53.2465 23.9113 53.1711C23.9657 53.1501 24.02 53.129 24.1286 53.0868C24.0743 53.1079 23.9657 53.1501 23.9657 53.1501C23.9989 53.0747 24.0111 52.945 23.9478 52.782L24.2826 52.8396C24.4456 52.7764 24.1651 52.6977 23.96 52.6523C23.9389 52.598 23.8968 52.4894 23.8757 52.4351C24.4156 52.5381 23.8579 52.0671 24.3767 52.1157C24.1838 51.9406 29.3313 42.5413 28.8368 42.2333C28.9122 42.2665 28.9665 42.2454 28.9333 42.3208C29.0209 42.2243 29.1627 42.1068 29.0995 41.9439L29.5097 42.0347L29.136 41.5548C29.4286 41.5037 29.6126 41.4948 29.7934 41.7996C29.5616 41.2022 29.7545 41.3773 29.5437 40.8342L29.7699 40.9339C29.8364 40.7831 29.5802 40.4451 29.8396 40.4694C30.446 40.4216 30.5676 39.1246 31.3944 38.6788C30.6827 38.4551 31.8832 38.4891 31.3888 38.1811C31.5939 38.2265 31.7025 38.1843 31.7657 38.3473C31.8354 37.8828 32.2999 37.9525 32.0559 37.4848C32.261 37.5302 32.2489 37.6599 32.3242 37.6931C32.3032 37.6388 32.261 37.5302 32.3697 37.488C32.4994 37.5002 32.4872 37.6299 32.5083 37.6842C32.6744 37.3073 32.2343 36.9782 31.8152 36.7034C32.1078 36.6523 32.1411 36.5769 31.9393 36.2178C32.1443 36.2632 32.3283 36.2543 32.2286 36.4805C32.3162 36.384 32.8626 35.8595 32.5189 35.618C32.6486 35.6301 32.6397 35.4461 32.6186 35.3918C32.8269 35.1235 32.8269 35.1235 32.9599 34.822L32.8512 34.8641C32.5197 34.4928 32.9299 34.5836 33.0296 34.3575L33.0507 34.4118C33.7024 34.1589 33.0539 34.0981 33.7267 33.8995L33.4795 33.7455C32.9972 33.3077 34.098 33.568 34.1134 33.1246L33.9083 33.0792C33.8573 32.7865 38.557 28.8582 38.7742 28.7739C38.8496 28.8071 38.8164 28.8825 38.7831 28.9579C39.3684 28.8557 38.4727 28.6409 38.6599 28.3183C38.8861 28.418 39.0125 28.7439 39.2087 28.6053C39.4138 28.6507 39.1431 27.6309 39.6619 27.6796C39.5111 27.6131 39.306 27.5677 39.3514 27.3626C39.4511 27.1364 40.2715 27.3181 40.0607 26.7749C40.1361 26.8082 40.1361 26.8082 40.2115 26.8414C40.2569 26.6363 40.4774 26.2383 40.372 25.9668C41.2523 26.625 40.8828 24.7063 41.5669 25.5031L41.9714 25.0962L42.0136 25.2048C42.3727 25.003 42.2673 24.7315 42.2373 24.4931C42.367 24.5053 42.3548 24.635 42.3548 24.635C42.919 24.4786 53.667 16.6639 53.7278 16.0155L53.9418 16.2449C53.9118 16.0065 54.9162 16.1792 55.1278 15.5972C55.1489 15.6515 55.1699 15.7058 55.191 15.7602C55.4901 15.0817 56.8682 15.7343 56.501 14.627L56.7004 14.1746C56.2116 14.3643 56.5108 13.6858 56.2303 13.6072C56.3511 13.4354 56.8788 13.668 56.6826 13.8066L56.6072 13.7734C56.839 14.3708 57.3011 13.6291 57.4486 14.0093C58.363 13.467 59.4249 13.305 60.2939 12.9678L60.0167 12.5754L60.3426 12.449C60.4933 12.5155 60.5776 12.7327 60.3604 12.817C60.5744 13.0464 60.6563 12.4522 60.6141 12.3436C61.1118 12.3379 71.7117 9.42294 71.8747 9.35972L72.0165 9.24219L71.9412 9.20895C72.0409 8.98279 71.9566 8.76555 72.2281 8.66018C72.4121 8.65127 72.4421 8.88959 72.4964 8.86851C72.5175 8.92282 72.5175 8.92283 72.6051 8.82637L73.0063 8.73316L72.6959 8.41619C72.7956 8.19004 62.0473 11.85 61.7158 11.4787C62.2402 12.0251 74.3374 7.65428 74.5846 7.8083C74.7719 7.48569 74.9891 7.40139 75.3361 7.32926C75.2607 7.29602 75.0921 6.86152 75.3515 6.88585C75.5047 7.76375 75.9335 7.09743 76.3282 7.63164C76.0178 7.31468 77.0886 7.33661 76.6396 6.82347C76.8989 6.8478 76.766 7.14934 76.9378 7.27013C77.3756 6.78783 78.2048 7.15345 78.8566 6.90056C78.8144 6.79193 78.6969 6.65007 78.7966 6.42391L79.3 6.91598C79.4418 6.79844 79.2311 6.25532 79.5959 6.55121C79.5537 6.44258 79.4573 6.35503 79.5448 6.25857C80.2687 6.35263 80.9537 6.02435 81.6054 5.77146C82.3114 5.4975 82.9843 5.29892 83.8257 5.53484C83.5784 5.38081 83.6871 5.33867 83.85 5.27545C83.7203 5.26328 83.7446 5.00389 83.6814 4.84095L84.372 5.01039C84.3331 4.58806 84.9484 4.72426 84.8552 4.323L84.7133 4.44054C84.762 3.92175 83.9871 3.53507 83.7763 2.99195C83.6944 3.58612 82.8295 2.48447 82.6901 3.41343C82.5393 3.34696 82.7355 3.20834 82.6179 3.06648C82.5936 3.32588 82.5061 3.42234 82.1924 3.41909L82.2256 3.3437C81.5739 3.59659 81.218 3.48471 80.4276 3.54143L80.5873 3.79191C80.4033 3.80082 80.3612 3.6922 80.2315 3.68004C80.1828 4.19883 80.687 3.56576 80.6595 4.13886C80.2647 3.60465 79.4768 4.47279 79.1485 3.78781C78.9102 3.8178 79.3293 4.09261 79.0577 4.19798L78.9402 4.05612L78.9158 4.31551C78.7318 4.32442 78.5932 4.12825 78.53 3.96531C78.5843 3.94424 78.6175 3.86886 78.6719 3.84779C78.4246 3.69376 78.0744 4.0796 77.999 4.04636L78.2795 4.125C77.6156 4.50759 76.6745 4.49783 76.0738 5.04335L76.1913 5.18521C75.7325 5.6132 64.677 8.64248 64.1218 8.98292L64.1007 8.92861C64.0342 9.07939 63.8923 9.19691 63.7294 9.26014C63.8291 9.03398 63.3857 9.01857 63.4854 8.79241C62.9723 9.24147 63.2771 9.06072 63.0323 9.71811L62.8937 9.52194C62.815 9.80241 62.8361 9.85672 62.5856 10.0164C62.7939 9.7481 62.2962 9.75376 62.4624 9.37683C61.6753 9.11984 61.7288 10.2239 61.1622 9.5689C61.1224 10.2717 61.7985 9.75941 61.732 9.91019C61.9249 10.0853 61.6834 10.429 61.4451 10.459C61.2821 10.5222 60.8031 9.77073 60.3143 9.96039C60.3686 9.93932 60.3475 9.88501 60.4018 9.86394C60.1757 9.76422 60.1059 10.2287 59.8044 10.0958C59.8433 10.5181 59.5328 10.2011 59.6682 10.711L60.0605 10.4338C59.8522 10.7021 59.9 11.3084 59.3601 11.2055C59.318 11.0968 59.4388 10.925 59.4509 10.7953C59.2791 10.6745 59.2758 10.9882 59.0497 10.8885C58.86 10.3997 59.5507 10.5691 59.6747 10.0836C59.4275 9.92956 59.3334 10.6534 59.2313 10.0682C59.3212 10.7831 58.7214 10.2035 58.6063 10.8731L58.5009 10.6015C58.4677 10.6769 58.4223 10.882 58.368 10.9031L58.3834 10.4597C58.2926 10.8698 57.756 10.4532 57.6019 10.7004C58.124 10.4353 57.8913 10.963 58.1929 11.096C57.764 11.7623 57.4844 10.5585 56.8626 11.0497C56.9502 10.9533 57.306 11.0652 57.2396 11.2159C57.0556 11.2248 56.8505 11.1794 56.6997 11.113C56.253 11.4113 56.9137 11.3424 56.8351 11.6228C56.4914 11.3813 56.681 11.8701 56.527 12.1173L56.3673 11.8668C55.7277 11.99 56.5659 12.5396 55.9596 12.5874L55.9539 12.0897L55.7999 12.337L55.6734 12.0111C55.5073 12.388 55.4319 12.3548 55.106 12.4812C55.2989 12.6563 55.371 13.0033 55.1749 13.1419C54.8944 13.0632 55.1238 12.8492 54.819 13.03C54.789 12.7917 54.759 12.5534 55.0063 12.7074C54.9641 12.5988 54.9763 12.4691 54.9552 12.4148C54.6748 12.3361 54.4875 12.6587 54.3789 12.7009C54.4332 12.6798 54.4875 12.6587 54.5629 12.692C54.5629 12.692 54.4964 12.8427 54.4299 12.9935C54.3635 13.1443 54.3181 13.3494 54.3181 13.3494C54.1673 13.2829 54.1794 13.1532 54.2127 13.0778C54.1251 13.1743 54.134 13.3583 54.0465 13.4547C53.9622 13.2375 53.8025 12.987 53.9022 12.7608L53.6153 13.3096C53.5188 13.2221 53.2051 13.2188 53.2172 13.0891C52.8703 13.1613 52.9059 13.8973 52.4836 13.9362C52.5047 13.9905 52.4714 14.0659 52.4382 14.1413C52.1123 14.2677 40.9331 21.9372 40.7758 22.4982L40.3235 22.2987C40.1152 22.567 40.9266 22.5646 40.5975 23.0048C40.3559 23.3485 40.2538 22.7632 40.0698 22.7721C40.0665 23.0858 40.0933 23.6379 39.5745 23.5892C39.5866 23.4595 39.7163 23.4717 39.7828 23.3209L39.3937 23.2844C39.367 22.7324 39.6596 22.6813 39.2495 22.5905C39.5056 22.9285 39.3305 23.1215 39.1554 23.3144C38.9803 23.5073 38.8052 23.7002 39.0824 24.0926L38.823 24.0683C38.8773 24.0472 38.8563 23.9929 38.9106 23.9718C38.3918 23.9231 39.1635 24.6235 38.75 24.8464C38.5871 24.9097 38.4031 24.9186 38.3942 24.7346L38.3034 25.1447C38.1948 25.1869 38.1526 25.0783 38.1859 25.0029L37.8567 25.443C37.9199 25.606 37.9499 25.8443 37.9588 26.0283C37.7748 26.0372 37.9167 25.9197 37.8413 25.8864L37.8048 26.2755C37.5243 26.1969 37.5276 25.8832 37.7238 25.7446C36.8945 25.379 37.7205 26.0583 36.9512 26.1693L37.0842 25.8678C36.5776 25.6894 36.5532 25.9488 36.1309 25.9877C36.336 26.0331 37.1474 26.0307 37.1109 26.4198C37.0023 26.4619 36.8937 26.5041 36.9237 26.7424C36.6554 26.5341 36.61 26.7392 36.4892 26.911L36.1998 26.6483C36.1211 26.9288 32.6487 31.4433 32.733 31.6606C32.5579 31.8535 32.2353 31.6662 32.0091 31.5665C31.6922 31.877 32.6033 31.6484 32.3496 32.1218C32.0448 32.3026 31.9872 32.6373 31.9718 33.0807C31.7002 33.1861 31.7789 32.9056 31.6492 32.8935L31.7967 33.2737C31.7424 33.2947 31.667 33.2615 31.6459 33.2072C31.6759 33.4455 31.9896 33.4487 31.911 33.7292C32.2214 34.0462 31.012 33.8281 31.2981 34.4044C31.1684 34.3923 31.1052 34.2293 30.9544 34.1629C31.0022 34.7692 30.9601 34.6606 31.1165 35.2248L30.7363 35.3723C31.1587 35.3334 31.2729 35.789 31.4205 36.1692C31.6045 36.1602 31.7342 36.1724 31.8096 36.2056L31.7941 36.649C31.7398 36.6701 31.6223 36.5283 31.5048 36.3864C31.5258 36.4407 31.5469 36.495 31.5469 36.495C31.3086 36.525 31.17 36.3288 31.0314 36.1327C31.1611 36.1448 31.2154 36.1237 31.3451 36.1359C31.1854 35.8854 30.9925 35.7103 30.7663 35.6106C30.7874 35.6649 30.8085 35.7192 30.7752 35.7946C30.7542 35.7403 30.6788 35.7071 30.6577 35.6528C30.6034 35.6738 30.6788 35.7071 30.7209 35.8157L30.2897 35.6706L30.4615 35.7914L29.9062 36.1318C30.1381 36.7292 30.5539 37.3178 30.3844 38.0084C30.1494 37.7247 29.89 37.7003 29.5674 37.5131C30.0318 37.5828 29.6703 36.9732 29.8997 36.7592C29.7579 36.8768 29.6403 36.7349 29.6193 36.6806L29.6338 37.3623C29.3655 37.154 29.3744 37.338 29.1572 37.4223C29.7935 37.6128 29.3136 37.9865 29.3858 38.3334C29.1596 38.2337 29.0421 38.0918 29.1961 37.8446C28.5897 37.8924 29.6751 38.5961 29.1442 38.6771C29.1774 38.6017 29.2317 38.5807 29.1353 38.4931C29.2196 38.7104 28.9026 39.0208 28.764 38.8246L28.7972 38.7492C28.5014 39.114 28.1025 40.0186 28.597 40.3267C28.5216 40.2934 28.0271 39.9854 27.9306 39.8979C27.9306 39.8979 28.2622 40.2691 28.6148 40.6947C28.9463 41.066 29.2778 41.4373 29.2778 41.4373C28.8588 41.1624 27.7247 40.9776 27.6647 40.5009C27.5772 40.5974 27.4143 40.6606 27.4653 40.9533C27.5739 40.9111 28.1892 41.0473 28.177 41.177C27.5707 41.2248 22.9363 50.1751 22.3721 50.3315C22.535 50.2683 23.126 50.6639 23.0595 50.8146C22.963 50.7271 22.381 50.5155 22.3599 50.4612L22.8722 51.1373C22.809 50.9743 22.3234 50.8503 22.0851 50.8803C22.2148 50.8924 21.9189 51.2572 21.9611 51.3658L22.1783 51.2815C21.8492 51.7217 22.9378 52.1116 22.7384 52.5639C22.6209 52.4221 21.9213 52.0686 21.7673 52.3159C22.0567 52.5785 23.2596 53.424 23.4493 53.9128L23.211 53.9428L23.3585 54.323C22.8972 53.9395 21.9659 52.9887 21.6133 52.5631C21.4171 52.7017 21.3539 52.5388 21.2752 52.8192C21.0369 52.8492 21.0402 52.5355 21.0734 52.4601L20.7532 53.0843C21.1634 53.1751 21.0061 53.736 21.3409 53.7936L21.1334 52.9368C21.5646 53.0819 22.1855 53.7158 21.9861 54.1681C21.7689 54.2524 21.2323 53.8357 21.1026 53.8236C21.199 53.9111 21.2379 54.3335 21.1293 54.3756L20.9696 54.1251C20.7402 54.3391 21.3854 54.7136 20.8966 54.9033C20.8091 54.9998 20.2781 55.0808 20.5043 55.1805C21.0352 55.0995 22.5673 55.5048 22.8899 55.6921C22.8356 55.7132 22.3014 56.1079 22.0087 56.159C21.6075 56.2522 21.1373 55.6847 20.7904 55.7569C20.9201 55.769 21.0376 55.9109 21.0587 55.9652C20.9168 56.0827 20.7028 55.8533 20.7328 56.0917C21.1641 56.2368 20.6088 56.5772 21.0555 56.2789C21.1065 56.5716 20.9014 56.5261 20.8771 56.7855C21.1697 56.7345 21.8028 57.2387 21.8328 57.477C21.7031 57.4649 21.5734 57.4527 21.5191 57.4738C21.395 57.9593 21.1656 58.1733 21.0959 58.6378C20.9873 58.6799 20.8122 58.8729 20.6403 58.7521C20.7368 58.8396 20.8333 58.9272 20.8211 59.0569C19.9975 59.189 20.4142 58.6524 19.9043 58.7877ZM22.2493 61.1272C22.3369 61.0308 22.3701 60.9554 22.2493 61.1272V61.1272ZM72.4875 8.6845L72.4121 8.65127C72.4786 8.5005 72.5208 8.60912 72.4875 8.6845ZM36.918 26.2447C36.9302 26.115 36.9002 25.8767 37.051 25.9431C37.3071 26.2812 37.102 26.2358 36.918 26.2447ZM30.5247 35.9543C30.4915 36.0297 30.4583 36.1051 30.3496 36.1472C30.2532 36.0597 30.3407 35.9632 30.5247 35.9543Z" fill="#CBECFF"/>
<path d="M25.4042 73.4873C25.5306 73.8132 25.5817 74.1058 25.6449 74.2687C25.6027 74.1601 25.5517 73.8675 25.6149 74.0304C25.6992 74.2477 25.687 74.3774 25.7713 74.5946C25.8078 74.2055 25.3863 73.1193 25.0402 72.0663C25.221 72.3711 25.1999 72.3168 25.0856 71.8612L25.14 71.8401C25.2032 72.0031 25.2875 72.2203 25.2964 72.4043C25.3507 72.3832 25.5679 72.2989 25.2186 71.5597C25.2818 71.7226 25.2729 71.5386 25.2308 71.43L25.4358 71.4754L25.2308 71.43L25.2097 71.3756C25.1886 71.3213 25.2429 71.3003 25.2429 71.3003C25.2429 71.3003 25.2972 71.2792 25.3183 71.3335C25.3183 71.3335 25.264 71.3546 25.2429 71.3003L25.2762 71.2249C25.3305 71.2038 25.4059 71.237 25.4812 71.2703L25.2762 71.2249L25.2218 71.246C25.2218 71.246 25.2008 71.1916 25.234 71.1162L25.1586 71.083C25.1376 71.0287 25.0954 70.9201 25.0743 70.8658C25.1286 70.8447 25.1497 70.899 25.1497 70.899C25.1076 70.7904 25.3005 70.9655 25.4634 70.9023C25.5388 70.9355 25.5388 70.9355 25.5388 70.9355C25.5931 70.9144 25.5931 70.9144 25.6474 70.8933C25.5931 70.9144 25.5931 70.9144 25.5931 70.9144C25.5388 70.9355 25.5177 70.8812 25.4634 70.9023C25.5177 70.8812 25.5388 70.9355 25.5931 70.9144L25.6474 70.8933L25.6385 70.7093C25.5842 70.7304 25.5842 70.7304 25.6053 70.7847C25.4002 70.7393 25.2705 70.7272 25.1197 70.6607C25.0987 70.6064 25.0776 70.5521 25.0565 70.4977C25.2405 70.4888 25.4456 70.5342 25.6296 70.5253C25.5542 70.4921 25.4245 70.4799 25.3491 70.4467C25.3824 70.3713 25.2227 70.1208 25.4699 70.2748L25.4489 70.2205C25.5996 70.287 25.675 70.3202 25.6207 70.3413C26.0098 70.3778 25.5453 70.3081 26.0641 70.3567C25.491 70.3292 26.1306 70.206 25.5032 70.1995C25.9466 70.2149 25.8169 70.2027 26.0552 70.1727C26.1306 70.206 26.1517 70.2603 26.206 70.2392C26.2814 70.2724 26.2692 70.4021 26.3113 70.5108C26.5164 70.5562 26.3989 70.4143 26.2392 70.1638C26.2181 70.1095 26.1427 70.0763 26.1217 70.022C26.2514 70.0341 26.176 70.0009 26.1006 69.9676C26.0795 69.9133 26.0795 69.9133 26.0584 69.859L26.1128 69.8379C26.2514 70.0341 26.411 70.2846 26.4986 70.1881C26.574 70.2214 26.4475 69.8955 26.3422 69.6239C26.3 69.5153 26.2579 69.4067 26.2368 69.3524C26.3665 69.3646 26.4208 69.3435 26.2157 69.2981C26.1947 69.2438 26.2279 69.1684 26.3243 69.2559L26.3033 69.2016L26.3576 69.1805C26.2822 69.1473 26.6291 69.0752 26.3697 69.0508C27.0393 69.166 26.5448 68.8579 26.7078 68.7947L26.373 68.7371C26.4062 68.6618 26.3309 68.6285 26.2555 68.5953C26.2344 68.541 26.1922 68.4323 26.0958 68.3448C26.1712 68.378 26.1712 68.378 26.2466 68.4113L26.2255 68.357C26.7232 68.3513 25.7853 68.0278 26.283 68.0222C26.2077 67.9889 26.2077 67.9889 26.3163 67.9468C26.3706 67.9257 26.446 67.959 26.5003 67.9379C26.4249 67.9046 26.3706 67.9257 26.3163 67.9468C26.3163 67.9468 26.2952 67.8925 26.2198 67.8592L26.5546 67.9168C26.6843 67.929 26.4038 67.8503 26.1987 67.8049C26.1234 67.7717 26.1023 67.7174 26.048 67.7385C26.1988 67.8049 26.2531 67.7839 26.232 67.7295C26.2863 67.7085 26.2863 67.7085 26.2863 67.7085C26.2863 67.7085 26.3617 67.7417 26.416 67.7206C26.3406 67.6874 26.3406 67.6874 26.2652 67.6542C26.2441 67.5998 26.202 67.4912 26.1599 67.3826C26.1388 67.3283 26.1177 67.274 26.1177 67.274C26.1931 67.3072 26.2685 67.3405 26.3439 67.3737C26.1931 67.3072 26.1177 67.274 26.0966 67.2197C26.0545 67.111 26.0877 67.0357 26.4103 67.2229L26.3925 66.8549L26.4679 66.8881C26.5011 66.8127 26.459 66.7041 26.4379 66.6498L26.4922 66.6287C26.4379 66.6498 26.4168 66.5955 26.4168 66.5955C26.4168 66.5955 26.3958 66.5412 26.3415 66.5623C26.4712 66.5744 26.5255 66.5534 26.245 66.4747C26.4501 66.5201 26.5044 66.499 26.6552 66.5655C26.4833 66.4447 26.9478 66.5145 26.4955 66.315C26.7006 66.3604 26.7216 66.4147 26.8513 66.4269C26.8303 66.3726 26.7006 66.3604 26.8303 66.3726C26.96 66.3848 26.981 66.4391 27.0564 66.4723C27.0353 66.418 26.8092 66.3183 26.4533 66.2064C26.4866 66.131 26.4655 66.0767 26.3901 66.0435C26.4444 66.0224 26.532 65.9259 26.2515 65.8473C26.3269 65.8805 26.3058 65.8262 26.3058 65.8262L26.4355 65.8384C26.2847 65.7719 27.0119 65.5523 26.6471 65.2564C26.7014 65.2353 26.7225 65.2896 26.7979 65.3229C26.7768 65.2685 26.7557 65.2142 26.7557 65.2142C26.9608 65.2596 27.1448 65.2507 27.1448 65.2507C27.1991 65.2296 27.2202 65.284 27.2956 65.3172C27.739 65.3326 26.8854 65.2264 26.8433 65.1178C27.0484 65.1632 27.4042 65.275 27.4585 65.254C27.6425 65.2451 26.8133 64.8794 27.2235 64.9703C27.1692 64.9913 27.1481 64.937 27.0938 64.9581C27.127 64.8827 27.127 64.8827 27.0305 64.7951C27.0848 64.7741 27.0849 64.7741 26.913 64.6533C26.9673 64.6322 26.9884 64.6865 27.0427 64.6655C26.9462 64.5779 26.8498 64.4904 26.6026 64.3363C27.649 64.6176 26.1956 63.9318 27.1124 64.201L27.1246 64.0713L27.2 64.1045C27.2875 64.0081 27.0824 63.9627 26.8563 63.8629C26.9106 63.8419 27.0071 63.9294 27.0614 63.9083C27.2786 63.824 27.2243 63.8451 26.956 63.6368C26.956 63.6368 26.956 63.6368 27.0103 63.6157L27.1611 63.6822C27.0103 63.6157 27.7131 63.6554 27.3694 63.4139C27.3694 63.4139 27.4448 63.4471 27.5202 63.4804C27.1765 63.2388 28.4946 63.4147 27.3516 63.0459L27.1044 62.8918C27.0501 62.9129 26.9957 62.934 26.9204 62.9007C27.0501 62.9129 27.3094 62.9372 27.2762 63.0126C27.4602 63.0037 27.3095 62.9372 27.1376 62.8165C27.1919 62.7954 27.1708 62.7411 27.3005 62.7532C27.4513 62.8197 27.5478 62.9073 27.5478 62.9073L27.5056 62.7986L27.4513 62.8197C27.4513 62.8197 27.4513 62.8197 27.4302 62.7654C27.4546 62.506 27.8558 62.4128 27.9555 62.1866L27.47 62.0626L27.5032 61.9872C27.6329 61.9994 27.8591 62.0991 27.8048 62.1202C28.0642 62.1445 27.6118 61.9451 27.5365 61.9118C27.7748 61.8818 28.0431 62.0902 28.0974 62.0691L28.0763 62.0148L28.022 62.0359C27.8502 61.9151 27.6451 61.8697 27.6994 61.8486C27.808 61.8065 27.9799 61.9272 28.0342 61.9062C28.0342 61.9062 28.0885 61.8851 28.0342 61.9062L28.1217 61.8097L27.7326 61.7732C27.5819 61.7067 27.7659 61.6978 27.3557 61.607C27.9499 61.6889 27.6727 61.2966 27.8777 61.342C27.6305 61.1879 27.6638 61.1126 27.7181 61.0915C27.6638 61.1126 27.5884 61.0793 27.513 61.0461L27.5673 61.025C28.0528 61.149 27.7845 60.9407 28.3244 61.0437C27.9142 60.9529 28.2401 60.8264 27.7756 60.7567C27.9053 60.7689 28.0561 60.8353 28.2612 60.8807C27.9929 60.6724 28.5449 60.6457 28.4817 60.4827C28.4063 60.4495 28.2012 60.4041 28.0504 60.3376L28.5903 60.4406C28.5692 60.3863 27.954 60.2501 28.3431 60.2866C28.2888 60.3076 28.2134 60.2744 28.1923 60.2201C28.2466 60.199 28.2798 60.1236 28.3131 60.0483C28.3463 59.9729 28.3253 59.9185 28.3585 59.8432L28.4882 59.8553C28.4882 59.8553 28.4128 59.8221 28.3163 59.7345C28.3074 59.5505 28.2985 59.3665 28.9259 59.373C28.7209 59.3276 28.7209 59.3276 28.6998 59.2733C28.6455 59.2944 28.4947 59.2279 28.3439 59.1614L28.7119 59.1436C28.3561 59.0317 28.6487 58.9807 28.4226 58.881C28.4558 58.8056 28.4558 58.8056 28.489 58.7302C28.5677 58.4497 28.7217 58.2025 29.2948 58.2301C29.0897 58.1847 29.0686 58.1304 29.1019 58.055C29.0476 58.076 28.8546 57.901 28.7039 57.8345L29.2016 57.8288C28.8579 57.5872 29.3013 57.6027 28.9576 57.3611L28.9998 57.4697C28.6139 57.1195 28.0197 57.0376 27.4499 56.6963C27.8568 57.1008 26.5963 56.5901 27.1962 57.1697C27.0665 57.1576 27.0243 57.0489 26.8735 56.9825C27.0665 57.1576 27.1086 57.2662 26.9246 57.2751L26.8492 57.2419C26.7163 57.5434 26.4779 57.5734 26.1399 57.8295L26.4415 57.9625C26.3328 58.0046 26.2574 57.9714 26.2031 57.9925C26.5679 58.2883 26.3239 57.8206 26.743 58.0954C26.1067 57.9049 26.4893 58.5688 25.8529 58.3783C25.7865 58.5291 26.2088 58.4902 26.1212 58.5866L25.9162 58.5412L26.1423 58.6409C26.1091 58.7163 25.8286 58.6377 25.6778 58.5712C25.6778 58.5712 25.6568 58.5169 25.6357 58.4626C25.3974 58.4926 25.5781 58.7974 25.5027 58.7641L25.6657 58.7009C25.6957 58.9392 25.5749 59.1111 25.4752 59.3372C25.463 59.4669 25.4508 59.5966 25.5351 59.8139L25.6648 59.8261C25.6859 59.8804 25.707 59.9347 25.728 59.989C25.6948 60.0644 25.4897 60.019 25.5197 60.2573L25.4986 60.203C25.574 60.2362 25.5951 60.2905 25.6162 60.3448C25.5619 60.3659 25.5408 60.3116 25.4865 60.3327C25.5619 60.3659 25.5829 60.4202 25.5829 60.4202L25.604 60.4745C25.4322 60.3538 25.236 60.4924 25.1185 60.3505C25.2781 60.601 25.2781 60.601 25.5254 60.755C25.5464 60.8093 25.6218 60.8426 25.6429 60.8969L25.5132 60.8847L25.5886 60.9179C25.5343 60.939 25.4589 60.9058 25.3835 60.8725C25.5343 60.939 25.6097 60.9723 25.6851 61.0055C25.7604 61.0387 25.7815 61.093 25.8026 61.1474C25.6729 61.1352 25.5975 61.102 25.5432 61.123C25.4678 61.0898 25.3381 61.0776 25.2416 60.9901C24.949 61.0411 25.0665 61.183 25.1087 61.2916L25.0333 61.2584L25.1087 61.2916C25.1508 61.4002 25.2262 61.4335 24.9125 61.4302C24.9125 61.4302 24.8582 61.4513 24.8371 61.397C24.9125 61.4302 24.9125 61.4302 24.9879 61.4635C25.009 61.5178 24.6199 61.4813 24.7707 61.5478C24.7828 61.4181 25.1265 61.6596 25.3648 61.6297C25.3859 61.684 25.4402 61.6629 25.4402 61.6629C25.3648 61.6296 25.2562 61.6718 25.1808 61.6386C24.9214 61.6142 24.641 61.5356 24.6831 61.6442C24.662 61.5899 24.8671 61.6353 24.9968 61.6475L24.9425 61.6686C24.8882 61.6896 24.7585 61.6775 24.6288 61.6653C24.6499 61.7196 24.7253 61.7528 24.7796 61.7318C24.8006 61.7861 24.8971 61.8736 24.7342 61.9369C24.8849 62.0033 24.906 62.0576 24.906 62.0576L24.7552 61.9912C24.9814 62.0909 24.9271 62.112 24.8185 62.1541C24.7974 62.0998 24.7763 62.0455 24.6799 61.9579C24.4415 61.9879 24.9903 62.2749 24.4837 62.0965C24.5591 62.1298 24.6345 62.163 24.7098 62.1963C24.5258 62.2052 24.6766 62.2716 24.6434 62.347L24.6977 62.3259L24.7188 62.3803C24.6644 62.4013 24.6312 62.4767 24.7277 62.5643C24.5769 62.4978 24.4472 62.4856 24.3507 62.3981L24.5437 62.5732L24.4893 62.5943C24.4893 62.5943 24.4893 62.5943 24.5104 62.6486C24.435 62.6153 24.3807 62.6364 24.251 62.6242C24.1967 62.6453 24.1756 62.591 24.1213 62.6121C24.067 62.6332 24.1635 62.7207 24.2599 62.8082C24.2056 62.8293 24.1513 62.8504 24.097 62.8715L24.0216 62.8382C24.0216 62.8382 24.0427 62.8925 24.097 62.8715C24.0427 62.8925 23.9884 62.9136 24.0638 62.9469C24.097 62.8715 24.097 62.8715 24.1513 62.8504C24.2267 62.8836 24.281 62.8626 24.3021 62.9169L24.1513 62.8504C24.2056 62.8293 24.281 62.8626 24.3564 62.8958C24.3564 62.8958 24.3564 62.8958 24.3021 62.9169C24.3775 62.9501 24.3775 62.9501 24.3985 63.0044C24.3442 63.0255 24.1602 63.0344 24.2024 63.143C24.0727 63.1309 24.0184 63.1519 23.964 63.173L23.8887 63.1398C23.8887 63.1398 23.9097 63.1941 23.964 63.173C23.9097 63.1941 23.9308 63.2484 23.8976 63.3238C23.8765 63.2695 23.9851 63.2273 24.1148 63.2395C24.1148 63.2395 24.1691 63.2184 24.1902 63.2727L24.2656 63.306C24.2113 63.327 24.2113 63.327 24.157 63.3481C24.1027 63.3692 23.994 63.4113 23.9186 63.3781C23.7679 63.3116 23.8222 63.2905 23.5417 63.2119C23.8222 63.2905 23.8976 63.3238 23.9186 63.3781C23.9186 63.3781 23.9186 63.3781 23.9397 63.4324C23.9608 63.4867 23.8732 63.5832 24.3045 63.7283L24.2291 63.6951L24.208 63.6407C24.0029 63.5953 24.1537 63.6618 24.3045 63.7283C24.3256 63.7826 24.5306 63.828 24.6603 63.8402L24.6814 63.8945C24.6271 63.9156 24.4974 63.9034 24.422 63.8702L24.3466 63.8369L24.4642 63.9788L24.1083 63.8669C24.2802 63.9877 24.3012 64.042 24.2469 64.0631C24.1172 64.0509 24.1926 64.0841 24.1926 64.0841C24.1926 64.0841 24.1383 64.1052 24.1594 64.1595C24.2137 64.1385 24.2891 64.1717 24.3645 64.2049C24.3645 64.2049 24.3312 64.2803 24.2015 64.2682L24.1051 64.1806C23.6195 64.0566 23.7914 64.1774 23.4776 64.1741C23.553 64.2073 23.8124 64.2317 24.0718 64.256C23.9632 64.2981 23.93 64.3735 23.951 64.4278L23.8757 64.3946C23.8757 64.3946 23.8967 64.4489 23.951 64.4278C23.9721 64.4822 23.9721 64.4822 23.9721 64.4822L24.0264 64.4611L24.1018 64.4943L24.2737 64.6151C24.144 64.6029 23.9389 64.5575 23.7338 64.5121C23.6462 64.6086 24.2526 64.5608 24.3158 64.7237C24.3158 64.7237 24.3158 64.7237 24.2615 64.7448C24.2072 64.7659 24.1861 64.7116 24.1861 64.7116C24.1861 64.7116 24.2072 64.7659 24.2826 64.7991C24.2826 64.7991 24.3036 64.8534 24.379 64.8867C24.1196 64.8623 23.8935 64.7626 23.797 64.6751L24.0321 64.9588C23.9778 64.9799 23.8481 64.9677 23.7938 64.9888C23.7727 64.9345 23.7184 64.9555 23.643 64.9223C23.6641 64.9766 23.7184 64.9555 23.7394 65.0099C23.6851 65.0309 23.6098 64.9977 23.6098 64.9977C23.4468 65.0609 23.8448 65.2814 23.908 65.4443C23.908 65.4443 23.908 65.4444 23.8748 65.5197C23.9502 65.553 23.9502 65.553 23.9713 65.6073C23.9169 65.6284 23.938 65.6827 23.8837 65.7037C23.8294 65.7248 23.8294 65.7248 23.7751 65.7459C23.7208 65.767 23.7208 65.767 23.8926 65.8878C23.8926 65.8878 23.7629 65.8756 23.6875 65.8424C23.6121 65.8091 23.5578 65.8302 23.5578 65.8302C23.4825 65.7969 23.4614 65.7426 23.386 65.7094C23.4071 65.7637 23.4825 65.7969 23.5035 65.8513L23.5578 65.8302C23.7086 65.8967 24.0977 65.9332 24.2152 66.075C24.2363 66.1293 24.2363 66.1293 24.2363 66.1293L23.9348 65.9964L24.0855 66.0629C23.9558 66.0507 23.8594 65.9631 23.784 65.9299C24.0102 66.0296 24.4292 66.3044 24.0734 66.1926C23.9769 66.105 24.0523 66.1382 24.0312 66.0839L23.8051 65.9842C23.4071 65.7637 23.5578 65.8302 23.1809 65.664C23.6332 65.8634 23.6543 65.9177 23.6543 65.9177C23.6754 65.9721 23.6754 65.9721 23.8683 66.1472C23.7929 66.1139 23.7929 66.1139 23.814 66.1682L23.7597 66.1893L23.6632 66.1017L23.7597 66.1893L23.5967 66.2525C23.5967 66.2525 23.5967 66.2525 23.6178 66.3068C23.3827 66.0231 23.4249 66.1317 23.1898 65.848C23.232 65.9566 23.4249 66.1317 23.5635 66.3279C23.681 66.4698 23.8196 66.6659 23.9161 66.7535L23.8407 66.7202C23.895 66.6992 23.9161 66.7535 23.9161 66.7535L23.8618 66.7746L23.5635 66.3279C23.681 66.4698 23.7443 66.6327 23.8618 66.7746C23.7443 66.6327 23.6056 66.4365 23.467 66.2404C23.446 66.186 23.6478 66.5452 23.8075 66.7956C23.8496 66.9043 23.925 66.9375 23.9461 66.9918C23.8496 66.9043 23.8707 66.9586 23.9339 67.1215L23.8796 67.1426C23.8585 67.0883 23.8375 67.034 23.8164 66.9796L23.9007 67.1969C23.9007 67.1969 23.8464 67.218 23.9218 67.2512L24.0271 67.5228C24.006 67.4684 23.9639 67.3598 23.9428 67.3055C23.9639 67.3598 23.985 67.4141 24.0271 67.5228L23.9728 67.5438C23.9728 67.5438 24.0271 67.5228 24.0482 67.5771C24.0693 67.6314 24.0693 67.6314 24.0903 67.6857C24.015 67.6525 23.9607 67.6735 23.9396 67.6192C23.9185 67.5649 23.9185 67.5649 23.8974 67.5106C23.9185 67.5649 23.9185 67.5649 23.9396 67.6192C23.7556 67.6281 23.6802 67.5949 23.7013 67.6492C23.4962 67.6038 23.4208 67.5706 23.3997 67.5163L23.2579 67.6338C23.27 67.5041 23.27 67.5041 23.24 67.2658C23.2943 67.2447 23.3697 67.2779 23.4451 67.3112C23.3697 67.2779 23.2943 67.2447 23.219 67.2115C23.1979 67.1571 23.2311 67.0818 23.189 66.9731C23.1801 66.7891 23.1557 67.0485 23.219 67.2115L23.1436 67.1782C23.1136 66.9399 23.1801 66.7891 23.1801 66.7891L23.1501 66.5508C23.1679 66.9188 23.1557 67.0485 23.0893 67.1993C23.035 67.2204 23.0349 67.2204 22.9806 67.2414L23.0139 67.1661C23.026 67.0364 22.9596 67.1871 22.9474 67.3168C22.9142 67.3922 22.9142 67.3922 22.9142 67.3922C22.9142 67.3922 22.8931 67.3379 22.9263 67.2625C22.9596 67.1871 22.9717 67.0574 22.9174 67.0785C22.9085 66.8945 22.9661 66.5597 22.9417 66.8191C22.9296 66.9488 22.8631 67.0996 22.8177 67.3047C22.7845 67.3801 22.6758 67.4222 22.6426 67.4976C22.6758 67.4222 22.688 67.2925 22.7212 67.2171C22.7091 67.3468 22.6426 67.4976 22.5883 67.5187C22.6215 67.4433 22.6337 67.3136 22.6669 67.2382C22.7212 67.2171 22.7002 67.1628 22.7545 67.1417C22.7756 67.196 22.7212 67.2171 22.7423 67.2714C22.7756 67.196 22.7756 67.196 22.7545 67.1417C22.7877 67.0663 22.821 66.991 22.7456 66.9577C22.7999 66.9366 22.7334 67.0874 22.7002 67.1628C22.7456 66.9577 23.0625 66.6473 23.0836 66.7016C22.8664 66.7859 22.6491 66.8702 22.474 67.0631L22.5494 67.0963C22.5162 67.1717 22.4618 67.1928 22.4286 67.2682C22.5162 67.1717 22.4618 67.1928 22.3532 67.2349C22.2446 67.2771 22.157 67.3735 22.1027 67.3946L22.3321 67.1806C22.3565 66.9212 21.8733 67.6086 21.8977 67.3492L22.2357 67.0931L22.1271 67.1352L22.3897 66.8458C22.1392 67.0055 22.1725 66.9301 22.1846 66.8005C22.1303 66.8215 22.0971 66.8969 22.0971 66.8969C22.0971 66.8969 22.1514 66.8758 22.1303 66.8215C22.0428 66.918 21.9341 66.9601 21.8798 66.9812C21.9341 66.9601 21.9131 66.9058 21.8588 66.9269C22.0006 66.8094 22.1757 66.6164 22.0217 66.8637C22.1092 66.7672 22.1636 66.7461 22.2511 66.6497C22.3508 66.4235 22.209 66.5411 22.1336 66.5078C22.1336 66.5078 22.1546 66.5621 22.1003 66.5832L21.6869 66.8061C21.6869 66.8061 21.6869 66.8061 21.7412 66.785C21.8498 66.7429 21.9585 66.7007 21.862 66.6132L21.9163 66.5921C21.862 66.6132 21.7745 66.7096 21.6991 66.6764C21.8742 66.4835 22.0493 66.2906 22.1579 66.2484L21.8863 66.3538C21.9739 66.2573 22.0193 66.0522 22.1279 66.0101C22.1944 65.8593 21.6602 66.2541 21.7056 66.049C21.6513 66.0701 21.618 66.1455 21.597 66.0911C21.5548 65.9825 21.6878 65.681 21.383 65.8617L21.6035 65.4637C21.4738 65.4516 21.2954 65.9582 21.0571 65.9882C20.8942 66.0514 21.2987 65.6445 21.3108 65.5148C21.1147 65.6534 20.7434 65.9849 20.9096 65.608C21.0182 65.5658 20.985 65.6412 21.0393 65.6202L21.139 65.394C21.477 65.1379 21.4105 65.2886 21.5978 64.966C21.0393 65.6202 21.2963 64.8331 20.7588 65.5415L20.8253 65.3907L20.8796 65.3697C21.0458 64.9927 20.4208 65.7977 20.4119 65.6137C20.4451 65.5383 20.4573 65.4086 20.5659 65.3664L20.3486 65.4507C20.3276 65.3964 20.4151 65.2999 20.4362 65.3543L20.2854 65.2878C20.1979 65.3842 20.0017 65.5228 19.9474 65.5439C20.0139 65.3931 20.0349 65.4475 20.0682 65.3721L19.872 65.5107C19.9717 65.2845 20.189 65.2002 20.21 65.2545C20.6721 64.5128 20.0139 65.3932 20.1922 64.8865L20.3008 64.8444C20.5756 64.4253 20.4338 64.5428 20.4913 64.208C20.4249 64.3588 20.159 64.9619 19.9417 65.0462C19.975 64.9708 19.9539 64.9165 19.812 65.034C20.0204 64.7657 19.9117 64.8079 19.8363 64.7746L20.0779 64.431C19.9693 64.4731 19.8485 64.6449 19.6523 64.7836C19.6313 64.7292 19.8185 64.4066 19.9393 64.2348C19.8972 64.1262 19.6856 64.7082 19.5559 64.696C19.547 64.512 19.4051 64.6295 19.1879 64.7138C19.2 64.5841 19.363 64.5209 19.3751 64.3912L19.1457 64.6052C19.1457 64.6052 19.2333 64.5087 19.2122 64.4544C19.1036 64.4966 18.9706 64.7981 18.862 64.8403C18.5661 65.205 19.1068 64.1829 18.7566 64.5687C18.7899 64.4933 18.9317 64.3758 18.9982 64.225C18.6934 64.4058 18.7477 64.3847 18.4097 64.6409L18.4883 64.3604C18.3554 64.6619 18.0716 64.897 17.8422 65.111C17.7758 65.2618 17.6882 65.3582 17.7093 65.4125L17.492 65.4968C17.5253 65.4214 17.6128 65.325 17.7547 65.2074C17.7004 65.2285 17.7004 65.2285 17.6671 65.3039C17.7336 65.1531 17.8544 64.9813 18.0295 64.7884C17.9963 64.8638 17.963 64.9391 17.9298 65.0145C18.1049 64.8216 18.28 64.6287 18.434 64.3815C18.3797 64.4025 18.3465 64.4779 18.3254 64.4236C18.3586 64.3482 18.4129 64.3271 18.4672 64.3061C18.5216 64.285 18.4129 64.3271 18.3254 64.4236L18.5459 64.0256L18.4251 64.1974L18.4827 63.8627C18.1114 64.1942 17.6193 64.6976 17.381 64.7276C17.5893 64.4592 17.7101 64.2874 17.9517 63.9437C17.7312 64.3417 18.169 63.8594 18.2111 63.968C18.19 63.9137 18.3108 63.7419 18.3651 63.7208L18.006 63.9226C18.2144 63.6543 18.1057 63.6965 18.1722 63.5457C17.8309 64.1155 17.8342 63.8018 17.638 63.9405C17.7588 63.7686 17.8796 63.5968 17.9217 63.7054C18.1211 63.2531 17.3964 64.2841 17.5415 63.8529C17.5415 63.8529 17.5626 63.9072 17.6502 63.8108C17.5083 63.9283 17.4994 63.7443 17.6413 63.6267C17.578 63.4638 17.2976 63.3852 16.9684 63.8253C17.0017 63.7499 17.3851 63.2887 17.4183 63.2133L16.2137 64.6181C16.5096 64.2533 17.0503 63.2312 17.3008 63.0715C17.334 62.9961 17.313 62.9418 17.15 63.005C17.1168 63.0804 16.8298 63.6291 16.7755 63.6502C17.0293 63.1768 16.8542 63.3698 17.0536 62.9174C17.0414 63.0471 16.5915 63.6591 16.5704 63.6048C16.658 63.5084 16.945 62.9596 16.9993 62.9385L16.5283 63.4962C16.6158 63.3997 16.8906 62.9807 16.936 62.7756C16.8696 62.9263 16.8396 62.688 16.8064 62.7634L16.761 62.9685C16.6977 62.8056 16.0816 63.7945 15.9641 63.6526C16.0516 63.5562 16.4805 62.8899 16.4926 62.7602C16.2843 63.0285 15.4388 64.2314 15.1883 64.3911L15.288 64.1649L15.0919 64.3035C15.421 63.8634 16.1878 62.9409 16.4837 62.5762C16.5291 62.3711 16.5834 62.35 16.5081 62.3168C16.5535 62.1117 16.7164 62.0484 16.7375 62.1028L16.6532 61.8855C16.4327 62.2835 16.2819 62.217 16.1489 62.5186L16.5413 62.2414C16.3208 62.6394 15.7955 63.2181 15.7533 63.1095C15.8198 62.9587 16.1822 62.4432 16.2487 62.2924C16.1611 62.3889 15.9982 62.4521 16.0314 62.3767L16.2065 62.1838C16.1976 61.9998 15.8231 62.645 15.9139 62.2349C15.8928 62.1806 16.0922 61.7282 15.9714 61.9001C15.772 62.3524 14.9897 63.7183 14.8025 64.0409C14.8025 64.0409 14.9265 63.5553 15.0262 63.3292C15.1924 62.9522 15.5426 62.5664 15.6756 62.2649C15.588 62.3613 15.5215 62.5121 15.4672 62.5332C15.4794 62.4035 15.6545 62.2105 15.6002 62.2316C15.3797 62.6296 15.5037 62.1441 15.4129 62.5542C15.3043 62.5964 15.3708 62.4456 15.2954 62.4124C15.2167 62.6928 14.7458 63.2505 14.6371 63.2927C14.7247 63.1962 14.7368 63.0665 14.7701 62.9911C14.6736 62.9036 14.698 62.6442 14.5683 62.632C14.6015 62.5566 14.5926 62.3726 14.7344 62.2551C14.7012 62.3305 14.6136 62.4269 14.5593 62.448C14.6712 62.0922 14.668 62.4059 14.8131 61.9746C14.7134 62.2008 14.5504 62.264 14.4086 62.3815C14.2424 62.7585 14.5261 62.5234 14.5926 62.3726C14.3388 62.846 13.9765 63.3616 13.7803 63.5002C13.6174 63.5634 13.8922 63.1443 13.8589 63.2197C13.7203 63.0235 13.2882 64.0035 13.3037 63.5601C13.4155 63.2043 13.6239 62.936 13.7236 62.7098C13.8865 62.6466 13.7536 62.9481 13.829 62.9814L13.8201 62.7974C13.9076 62.7009 14.0162 62.6588 13.983 62.7341C14.0616 62.4537 13.7147 62.5258 13.7179 62.2121C13.6304 62.3086 13.5428 62.405 13.5307 62.5347L13.585 62.5136C13.5063 62.7941 13.3434 62.8573 13.3312 62.987C13.2105 63.1589 12.981 63.3729 12.9721 63.1889L13.1383 62.8119C13.1051 62.8873 13.114 63.0713 13.1805 62.9206C13.0597 63.0924 13.2834 62.3807 13.0297 62.8541L12.9511 63.1345C12.8303 63.3064 12.5887 63.6501 12.5466 63.5415C12.4347 63.8973 12.6009 63.5204 12.4558 63.9516C12.613 63.3907 12.6276 64.0724 12.7638 63.4572C12.5854 63.9638 12.7395 63.7166 12.6487 64.1267C12.7151 63.976 12.7484 63.9006 12.7695 63.9549C12.8238 63.9338 12.8027 63.8795 12.857 63.8584C12.8902 63.783 12.8692 63.7287 12.9024 63.6533C13.0564 63.4061 13.1318 63.4393 13.2737 63.3218C13.2948 63.3761 13.2072 63.4726 13.1407 63.6234L13.3158 63.4304C13.1829 63.732 13.1918 63.916 13.0499 64.0335L13.1253 64.0668C13.1342 64.2508 13.101 64.3261 13.1885 64.2297C13.2096 64.284 13.3969 63.9614 13.2972 64.1875L13.4933 64.0489L13.4601 64.1243C13.5566 64.2119 13.9068 63.826 13.8038 64.3659C13.8581 64.3448 13.9456 64.2484 13.9878 64.357L13.8881 64.5831C13.9967 64.541 13.8848 64.8969 14.0389 64.6496C13.773 65.2527 14.1985 64.9001 14.2074 65.0841L14.3404 64.7826C14.3615 64.8369 14.4701 64.7947 14.633 64.7315L14.7871 64.4843C14.9622 64.2914 14.8381 64.7769 14.9678 64.7891C14.8803 64.8855 14.9135 64.8102 14.8924 64.7558C14.6476 65.4132 15.3602 64.5119 15.2361 64.9974C15.3237 64.9009 15.3447 64.9553 15.3115 65.0306C15.2783 65.106 15.2993 65.1603 15.245 65.1814C15.2783 65.106 15.3115 65.0306 15.3115 65.0306C15.3115 65.0306 15.3658 65.0096 15.4744 64.9674L15.3204 65.2147C15.3082 65.3444 15.408 65.1182 15.5077 64.892C15.562 64.871 15.5952 64.7956 15.6495 64.7745C15.3958 65.2479 15.8125 64.7113 15.5587 65.1847C15.7338 64.9918 15.8303 65.0793 16.1051 64.6602C16.0719 64.7356 16.0719 64.7356 16.0176 64.7567C16.0386 64.811 16.0054 64.8864 16.1473 64.7689L15.96 65.0915L16.3102 64.7056C16.2105 64.9318 16.144 65.0826 15.9689 65.2755C16.3402 64.944 16.1318 65.2123 16.5031 64.8807L16.328 65.0736C16.3823 65.0526 16.6117 64.8386 16.4909 65.0104C16.2915 65.4627 16.8014 65.3274 16.7317 65.7919C17.1273 65.2009 16.6863 65.9969 16.8946 65.7286C16.8071 65.8251 16.7738 65.9005 16.6863 65.9969C16.7406 65.9759 16.7617 66.0302 16.7827 66.0845L16.7284 66.1056C16.6952 66.181 16.7373 66.2896 16.683 66.3107C16.7916 66.2685 16.846 66.2474 16.8581 66.1177C16.9124 66.0967 16.9124 66.0967 17 66.0002C16.9335 66.151 16.8249 66.1931 16.7916 66.2685C16.846 66.2474 16.9335 66.151 16.8459 66.2474C16.8127 66.3228 16.7584 66.3439 16.6709 66.4404C16.7462 66.4736 17.1297 66.0124 17.4256 65.6476C17.3258 65.8738 17.3802 65.8527 17.6096 65.6387C17.5431 65.7895 17.4766 65.9402 17.368 65.9824C17.3891 66.0367 17.4401 66.3293 17.6817 65.9856C17.6485 66.061 17.7028 66.0399 17.7571 66.0189C17.7028 66.0399 17.7239 66.0943 17.6695 66.1153L17.7782 66.0732C17.7992 66.1275 17.7992 66.1275 17.8746 66.1607L17.9079 66.0853C18.2581 65.6995 18.0165 66.0432 18.1462 66.0554L18.0919 66.0764C18.0011 66.4866 18.2337 65.9589 18.164 66.4234L18.318 66.1761C18.7347 65.6395 18.2272 66.5863 18.4234 66.4477L18.4899 66.2969C18.5442 66.2759 18.5109 66.3512 18.4777 66.4266C18.4445 66.502 18.3569 66.5985 18.2904 66.7493C18.2361 66.7703 18.2361 66.7703 18.2151 66.716C18.2361 66.7703 18.2029 66.8457 18.224 66.9C18.1575 67.0508 18.091 67.2016 18.0367 67.2226C18.0035 67.298 17.9492 67.3191 17.9492 67.3191C17.783 67.696 18.2118 67.0297 18.3204 66.9876C18.1996 67.1594 17.9913 67.4277 18.0124 67.482C17.9459 67.6328 18.4047 67.2048 18.4469 67.3134L18.3593 67.4099L18.4469 67.3134C18.4469 67.3134 18.468 67.3677 18.4136 67.3888C18.4469 67.3134 18.5012 67.2924 18.4801 67.2381L18.6763 67.0994L18.5677 67.1416C18.622 67.1205 18.6552 67.0451 18.6552 67.0451C18.7095 67.0241 18.6098 67.2502 18.5977 67.3799L18.5101 67.4764L18.6187 67.4342C18.6187 67.4342 18.673 67.4132 18.7606 67.3167C18.7274 67.3921 18.7273 67.3921 18.673 67.4132C18.7273 67.3921 18.7273 67.3921 18.7817 67.371C18.7817 67.371 18.7484 67.4464 18.6819 67.5972C18.8692 67.2745 18.9324 67.4375 18.9535 67.4918C18.9203 67.5672 18.9956 67.6004 19.05 67.5793C19.0378 67.709 19.0921 67.688 18.9592 67.9895C19.0467 67.893 19.0589 67.7633 19.101 67.872L19.1553 67.8509L19.2307 67.8841L19.1975 67.9595C19.1975 67.9595 19.1975 67.9595 19.1642 68.0349C19.1642 68.0349 19.1642 68.0349 19.2396 68.0681C19.2396 68.0681 19.2396 68.0681 19.2186 68.0138C19.2396 68.0681 19.2939 68.0471 19.3483 68.026C19.315 68.1014 19.2275 68.1978 19.2607 68.1225C19.0856 68.3154 19.4447 68.1135 19.4569 67.9839C19.478 68.0382 19.478 68.0382 19.4447 68.1135L19.3904 68.1346L19.4869 68.2222C19.4415 68.4273 19.4836 68.5359 19.5712 68.4394C19.5922 68.4937 19.6465 68.4727 19.6798 68.3973C19.6676 68.527 19.743 68.5602 19.8516 68.5181C19.7973 68.5391 19.7641 68.6145 19.7641 68.6145C20.1443 68.467 19.5282 69.4559 20.2164 68.8139L20.2375 68.8683C20.2164 68.8139 20.2707 68.7929 20.2496 68.7386L20.3039 68.7175L20.4126 68.6753C20.4336 68.7296 20.4004 68.805 20.3882 68.9347C20.4636 68.968 20.5179 68.9469 20.6144 69.0344C20.6355 69.0888 20.7109 69.122 20.753 69.2306L20.6533 69.4568C20.783 69.4689 20.843 69.9456 20.9848 69.828C20.7821 70.5941 21.4971 70.5041 21.6114 70.9597L21.7233 70.6038C21.8408 70.7457 21.9373 70.8332 22.067 70.8454C22.067 70.8454 22.0126 70.8665 22.0337 70.9208C22.088 70.8997 22.088 70.8997 22.067 70.8454C22.1213 70.8243 22.1423 70.8786 22.1967 70.8576L21.7476 70.3444C21.8019 70.3234 21.8773 70.3566 21.9648 70.2601C21.9316 70.3355 21.823 70.3777 21.7897 70.4531C22.1156 70.3266 21.8829 70.8543 22.088 70.8997C22.088 70.8997 22.1423 70.8786 22.1213 70.8243C22.1423 70.8786 22.1423 70.8786 22.1634 70.9329L22.0759 71.0294C22.0759 71.0294 22.1302 71.0083 22.1845 70.9873C22.2655 71.5182 22.3952 71.5304 22.5371 71.4128C22.7 71.3496 22.7665 71.1989 22.8897 71.8384C22.9229 71.763 22.944 71.8174 22.9651 71.8717C22.9318 71.947 22.9318 71.947 22.8986 72.0224C22.9529 72.0014 22.9318 71.9471 22.9862 71.926C23.0072 71.9803 23.0283 72.0346 23.0494 72.0889L23.0705 72.1432C23.0915 72.1975 23.0915 72.1975 23.1126 72.2518L23.0583 72.2729L22.9918 72.4237L23.0794 72.3272C23.1215 72.4359 23.1637 72.5445 23.1304 72.6199C23.0883 72.5112 23.1004 72.3815 23.0794 72.3272L23.1337 72.3062L23.0794 72.3272C23.0583 72.2729 23.0583 72.2729 23.0372 72.2186C23.0583 72.2729 23.1337 72.3062 23.1669 72.2308L23.2091 72.3394L23.1547 72.3605L23.2091 72.3394L23.2569 72.9457C23.329 73.2927 23.269 72.816 23.188 72.2851L23.2966 72.2429C23.4109 72.6985 23.3542 71.9082 23.5584 73.0787C23.5317 72.5267 23.7757 72.9944 23.6346 71.9868C23.7189 72.204 23.8243 72.4756 23.7522 72.1287L24.0107 73.2781C24.0107 73.2781 23.9597 72.9855 23.9418 72.6175C23.8697 72.2705 23.873 71.9568 23.873 71.9568C24.0594 72.7593 24.1737 73.2149 24.2847 73.9842C24.258 73.4321 24.2369 73.3778 24.2701 73.3024C24.3034 73.2271 24.2612 73.1184 24.1591 72.5332L24.3244 73.2814C24.3455 73.3357 24.1713 72.4035 24.3698 73.0763C24.4331 73.2392 24.442 73.4232 24.5052 73.5862C24.6738 74.0207 24.707 73.9453 24.7824 73.9785C24.8367 73.9574 24.8578 74.0117 24.9332 74.045C24.9543 74.0993 25.0296 74.1325 25.0507 74.1868C25.0718 74.2412 25.0718 74.2412 25.0929 74.2955C25.0929 74.2955 25.1139 74.3498 25.1682 74.3287C24.6657 72.7115 25.4333 74.8508 25.0361 73.5051C25.1837 73.8853 25.2469 74.0482 25.3401 74.4495C25.3677 73.8764 25.6838 74.6911 25.4042 73.4873ZM27.6816 61.4806L27.6062 61.4473C27.4765 61.4352 27.5519 61.4684 27.6816 61.4806ZM12.4136 63.843C12.4014 63.9727 12.4347 63.8973 12.4136 63.843V63.843ZM17.4929 64.3717C17.5804 64.2752 17.5472 64.3506 17.535 64.4803C17.4807 64.5014 17.4596 64.4471 17.4929 64.3717ZM19.3386 64.7803C19.393 64.7592 19.5891 64.6206 19.4473 64.7382C19.26 65.0608 19.3265 64.91 19.3386 64.7803ZM24.7784 71.2305L24.8295 71.5232C24.8084 71.4689 24.7452 71.3059 24.682 71.143L24.7363 71.1219L24.7784 71.2305ZM22.7569 67.9532C22.778 68.0075 22.7447 68.0829 22.7447 68.0829C22.6361 68.125 22.6361 68.125 22.7569 67.9532ZM22.3978 68.155C22.431 68.0796 22.5186 67.9831 22.5518 67.9078C22.5064 68.1128 22.4732 68.1882 22.3978 68.155ZM22.5874 68.6438C22.5874 68.6438 22.5664 68.5895 22.6207 68.5684C22.6539 68.493 22.7082 68.4719 22.7415 68.3966C22.7625 68.4509 22.7293 68.5263 22.7504 68.5806C22.6961 68.6016 22.6418 68.6227 22.5874 68.6438ZM22.9142 67.3922C22.9895 67.4255 23.0649 67.4587 23.0649 67.4587C23.1071 67.5673 23.0949 67.697 23.116 67.7513C23.0528 67.5884 23.0649 67.4587 23.0406 67.7181L22.9652 67.6848C22.9652 67.6848 22.9652 67.6848 22.9441 67.6305C22.9441 67.6305 22.9442 67.6305 22.9652 67.6848L22.8898 67.6516C22.9231 67.5762 22.8809 67.4676 22.9142 67.3922ZM22.8599 67.4133C22.902 67.5219 22.8809 67.4676 22.8599 67.4133V67.4133ZM23.6267 66.4908C23.6478 66.5452 23.7232 66.5784 23.7232 66.5784L23.6478 66.5452C23.6267 66.4908 23.6267 66.4908 23.6267 66.4908ZM23.6146 66.6205C23.5935 66.5662 23.5935 66.5662 23.6146 66.6205C23.5392 66.5873 23.5392 66.5873 23.6146 66.6205C23.5392 66.5873 23.5392 66.5873 23.5935 66.5662C23.5935 66.5662 23.5935 66.5662 23.6146 66.6205ZM23.9582 66.8621C23.8829 66.8289 23.8829 66.8289 23.8618 66.7746C23.9372 66.8078 23.9372 66.8078 23.9582 66.8621ZM23.9372 66.8078C23.8829 66.8289 23.8829 66.8289 23.9372 66.8078C23.8618 66.7746 23.8618 66.7746 23.8407 66.7202C23.8407 66.7202 23.895 66.6992 23.9161 66.7535L23.9372 66.8078ZM23.8407 66.7202C23.8196 66.6659 23.8196 66.6659 23.8407 66.7202C23.7864 66.7413 23.7653 66.687 23.7653 66.687L23.7443 66.6327L23.8407 66.7202C23.8407 66.7202 23.8196 66.6659 23.8407 66.7202ZM22.6839 68.7313L22.7714 68.6349C22.7714 68.6349 22.7715 68.6349 22.7925 68.6892C22.7171 68.656 22.6628 68.677 22.6839 68.7313ZM23.0617 67.7724C23.0828 67.8267 23.0828 67.8267 23.1249 67.9353C23.1249 67.9353 23.1249 67.9353 23.0706 67.9564C23.0284 67.8478 23.0617 67.7724 23.0617 67.7724ZM23.116 67.7513C23.1371 67.8056 23.1581 67.8599 23.1581 67.8599C23.1581 67.8599 23.1581 67.8599 23.116 67.7513L23.1581 67.8599C23.1581 67.8599 23.1371 67.8056 23.116 67.7513ZM23.0495 67.9021C23.0706 67.9564 23.1249 67.9353 23.0495 67.9021C23.0917 68.0107 23.1549 68.1737 23.1427 68.3034C23.1427 68.3034 23.1427 68.3034 23.0884 68.3244C23.1216 68.249 23.1549 68.1737 23.0495 67.9021ZM24.2516 69.8727C24.2516 69.8727 24.2727 69.9271 24.2516 69.8727V69.8727ZM24.3059 69.8517C24.2848 69.7974 24.2848 69.7974 24.3059 69.8517V69.8517ZM23.2781 68.8132C23.257 68.7589 23.257 68.7589 23.2781 68.8132C23.2781 68.8132 23.2991 68.8675 23.3202 68.9219C23.2991 68.8675 23.2781 68.8132 23.2781 68.8132ZM23.5651 68.2645C23.6404 68.2977 23.6404 68.2977 23.6404 68.2977C23.7037 68.4606 23.7458 68.5693 23.7547 68.7533L23.7004 68.7743C23.6583 68.6657 23.6704 68.536 23.6915 68.5903C23.595 68.5028 23.5529 68.3942 23.5651 68.2645ZM23.6194 68.2434C23.5983 68.1891 23.5983 68.1891 23.6194 68.2434C23.5983 68.1891 23.6526 68.168 23.6194 68.2434C23.6194 68.2434 23.6737 68.2223 23.6194 68.2434ZM23.9476 68.9284C23.8844 68.7654 23.8423 68.6568 23.8212 68.6025C23.8633 68.7111 23.9055 68.8197 23.9266 68.8741C23.8633 68.7111 23.8212 68.6025 23.8001 68.5482C23.758 68.4396 23.8423 68.6568 23.9266 68.8741L23.779 68.4939C23.779 68.4939 23.8334 68.4728 23.8544 68.5271C23.8755 68.5814 23.9387 68.7444 23.9476 68.9284C24.002 68.9073 24.002 68.9073 23.9476 68.9284ZM23.7369 68.3852L23.7158 68.3309C23.6947 68.2766 23.7158 68.3309 23.7369 68.3852C23.7701 68.3099 23.7912 68.3642 23.7912 68.3642C23.7369 68.3852 23.7369 68.3852 23.7369 68.3852ZM23.7701 68.3099C23.7912 68.3642 23.7912 68.3642 23.7701 68.3099V68.3099ZM23.6737 68.2223C23.6737 68.2223 23.728 68.2012 23.7491 68.2555C23.728 68.2012 23.6737 68.2223 23.6737 68.2223ZM23.4897 68.2312L23.625 68.7411C23.5318 68.3398 23.4564 68.3066 23.4897 68.2312ZM23.3745 68.9008L23.2392 68.3909C23.3356 68.4785 23.3446 68.6625 23.3745 68.9008ZM23.3745 68.9008C23.3745 68.9008 23.3202 68.9219 23.3745 68.9008C23.3113 68.7378 23.2481 68.5749 23.2392 68.3909L23.3745 68.9008ZM23.2181 68.3366C23.1549 68.1737 23.167 68.044 23.1249 67.9353L23.2181 68.3366ZM23.1849 68.412C23.227 68.5206 23.1938 68.596 23.2359 68.7046C23.2359 68.7046 23.2359 68.7046 23.2149 68.6503C23.2481 68.5749 23.227 68.5206 23.1849 68.412C23.1849 68.412 23.2059 68.4663 23.1849 68.412ZM24.652 70.9047L24.6731 70.959L24.652 70.9047ZM24.1916 69.3961C24.1373 69.4172 24.1373 69.4172 24.1916 69.3961C24.1373 69.4172 24.1373 69.4172 24.1916 69.3961C24.1916 69.3961 24.1705 69.3418 24.1916 69.3961ZM24.1705 69.3418C24.0952 69.3085 24.0952 69.3085 24.1705 69.3418C24.1495 69.2875 24.1495 69.2875 24.1495 69.2875C24.1495 69.2875 24.1495 69.2875 24.1705 69.3418ZM23.993 68.7233L23.8334 68.4728C23.8334 68.4728 23.8334 68.4728 23.8877 68.4517C23.9088 68.506 23.9509 68.6147 23.993 68.7233ZM23.7823 68.1802C23.728 68.2012 23.7069 68.1469 23.6526 68.168C23.6526 68.168 23.6858 68.0926 23.6648 68.0383C23.6648 68.0383 23.7191 68.0172 23.7402 68.0715C23.7402 68.0715 23.7612 68.1259 23.7823 68.1802ZM23.5894 68.0051C23.5894 68.0051 23.5351 68.0261 23.5894 68.0051C23.5351 68.0261 23.5351 68.0261 23.5894 68.0051C23.5351 68.0261 23.5351 68.0261 23.5894 68.0051ZM23.5561 68.0804C23.5018 68.1015 23.5018 68.1015 23.5561 68.0804C23.4808 68.0472 23.4808 68.0472 23.4597 67.9929L23.514 67.9718C23.5351 68.0261 23.5351 68.0261 23.5561 68.0804ZM23.4597 67.9929L23.5018 68.1015L23.4475 68.1226C23.4475 68.1226 23.4475 68.1226 23.4264 68.0683L23.3511 68.035L23.3721 68.0894C23.3178 68.1104 23.2967 68.0561 23.2635 68.1315C23.2635 68.1315 23.3178 68.1104 23.3932 68.1437C23.4143 68.198 23.4143 68.198 23.4143 68.198C23.4986 68.4152 23.5075 68.5992 23.5707 68.7622C23.5707 68.7622 23.5707 68.7622 23.5164 68.7833C23.4532 68.6203 23.4864 68.5449 23.5286 68.6535C23.3721 68.0894 23.4443 68.4363 23.5164 68.7833L23.4621 68.8043C23.441 68.75 23.441 68.75 23.4199 68.6957C23.3778 68.5871 23.3356 68.4785 23.3024 68.5538C23.3235 68.6082 23.2902 68.6835 23.3535 68.8465C23.2902 68.6835 23.2813 68.4995 23.2181 68.3366L23.2724 68.3155L23.2181 68.3366C23.1549 68.1737 23.1671 68.044 23.146 67.9897C23.2546 67.9475 23.33 67.9807 23.4597 67.9929ZM23.2003 67.9686C23.2214 68.0229 23.2092 68.1526 23.2724 68.3155L23.2003 67.9686C23.2003 67.9686 23.1792 67.9143 23.2003 67.9686ZM23.0495 67.9021C23.0074 67.7935 22.9863 67.7392 22.9863 67.7392C23.0617 67.7724 23.0284 67.8478 23.0495 67.9021ZM23.0495 67.9021C23.0917 68.0107 23.1006 68.1947 23.1095 68.3787C23.0463 68.2158 23.0374 68.0318 23.0495 67.9021ZM23.1516 68.4874C23.1727 68.5417 23.1938 68.596 23.1395 68.6171C23.1395 68.6171 23.1395 68.6171 23.1516 68.4874C23.1727 68.5417 23.1184 68.5627 23.1516 68.4874ZM23.1062 68.6924L23.0852 68.6381L23.1062 68.6924ZM24.652 70.9047C24.652 70.9047 24.7063 70.8836 24.7274 70.9379L24.7574 71.1762L24.7031 71.1973C24.6941 71.0133 24.6731 70.959 24.652 70.9047ZM25.1627 69.6442C25.1838 69.6985 25.2381 69.6774 25.2592 69.7317C25.2049 69.7528 25.1295 69.7196 25.0752 69.7406C24.9698 69.4691 25.0663 69.5566 25.1627 69.6442ZM25.3889 69.7439L25.3678 69.6896C25.4764 69.6474 25.4975 69.7017 25.3889 69.7439ZM23.9452 68.1169C23.8909 68.138 23.8699 68.0837 23.8699 68.0837C23.9242 68.0626 23.9242 68.0626 23.9452 68.1169ZM23.5383 67.7124C23.5383 67.7124 23.484 67.7335 23.5383 67.7124V67.7124ZM23.3876 67.646L23.3122 67.6127C23.3332 67.667 23.3332 67.667 23.3876 67.646C23.4086 67.7003 23.4086 67.7003 23.3876 67.646C23.484 67.7335 23.5051 67.7878 23.4297 67.7546L23.2035 67.6549C23.0949 67.697 23.3754 67.7757 23.4508 67.8089C23.4508 67.8089 23.3965 67.83 23.3211 67.7967C23.3211 67.7967 23.1914 67.7846 23.1371 67.8056L23.0949 67.697L23.2457 67.7635L23.0738 67.6427L23.0228 67.3501C23.1614 67.5462 23.2579 67.6338 23.3876 67.646ZM22.9652 67.6848C22.9863 67.7392 23.0074 67.7935 22.9741 67.8689C22.9741 67.8689 22.9741 67.8689 22.9198 67.8899C22.9531 67.8146 22.932 67.7602 22.9652 67.6848ZM22.9952 67.9232C23.0374 68.0318 23.0041 68.1072 23.0463 68.2158C23.0673 68.2701 23.0341 68.3455 23.0552 68.3998C23.0673 68.2701 23.0041 68.1072 22.9952 67.9232ZM22.9133 68.5174L22.859 68.5384C22.8379 68.4841 22.8501 68.3544 22.829 68.3001C22.8833 68.279 22.8833 68.279 22.9376 68.258C22.9255 68.3876 22.8922 68.463 22.9133 68.5174ZM23.8973 71.6974C23.9184 71.7517 23.9394 71.806 23.9394 71.806C23.9184 71.7517 23.8973 71.6974 23.8973 71.6974ZM25.1651 70.4556C25.2405 70.4888 25.2405 70.4888 25.1651 70.4556C25.1651 70.4556 25.1108 70.4767 25.0565 70.4977C24.9933 70.3348 25.153 70.5853 25.1441 70.4013L25.1651 70.4556ZM25.8501 70.1273C25.829 70.073 25.829 70.073 25.8501 70.1273C25.7958 70.1484 25.7204 70.1152 25.6661 70.1362C25.3856 70.0576 25.4189 69.9822 25.2681 69.9157C25.3224 69.8947 25.4189 69.9822 25.5486 69.9944L25.3224 69.8947C25.4521 69.9068 25.5818 69.919 25.7115 69.9312C25.7326 69.9855 25.829 70.073 25.8501 70.1273ZM26.0747 68.2905C26.0536 68.2362 26.0536 68.2362 26.0747 68.2905V68.2905ZM24.1172 64.0509C24.0418 64.0177 23.8911 63.9512 24.0751 63.9423C24.3977 64.1295 24.2469 64.0631 24.1172 64.0509ZM24.2024 63.143C24.1481 63.1641 24.1481 63.1641 24.2024 63.143V63.143ZM24.8971 61.8736C24.876 61.8193 24.9514 61.8526 24.9514 61.8526C25.0268 61.8858 25.0479 61.9401 25.1233 61.9733L24.8971 61.8736ZM25.0122 61.2041C25.0876 61.2373 25.0876 61.2373 25.0876 61.2373L25.0122 61.2041ZM25.0665 61.183C25.1209 61.1619 25.1209 61.1619 25.0665 61.183C25.1209 61.1619 25.1419 61.2162 25.2173 61.2495L25.0665 61.183ZM25.2084 61.0655C25.3381 61.0776 25.4135 61.1109 25.5099 61.1984C25.5099 61.1984 25.51 61.1984 25.4556 61.2195C25.3049 61.153 25.2295 61.1198 25.2084 61.0655ZM24.906 62.0576C24.9603 62.0366 24.9603 62.0366 24.906 62.0576C24.9814 62.0909 25.0779 62.1784 25.0779 62.1784C25.0025 62.1452 24.9814 62.0909 24.906 62.0576C24.8517 62.0787 24.8517 62.0787 24.8728 62.133C24.8185 62.1541 24.8185 62.1541 24.8185 62.1541C24.7431 62.1209 24.5923 62.0544 24.5923 62.0544C24.5923 62.0544 24.6466 62.0333 24.722 62.0666C24.6466 62.0333 24.6466 62.0333 24.5712 62.0001C24.5712 62.0001 24.5712 62.0001 24.5502 61.9458C24.6799 61.9579 24.8306 62.0244 24.906 62.0576ZM23.8887 63.1398C23.943 63.1187 24.0727 63.1309 24.1481 63.1641L23.8887 63.1398ZM23.7071 63.9601C23.8368 63.9723 24.0418 64.0177 24.1172 64.0509C24.0629 64.072 24.0086 64.0931 24.1383 64.1052C24.0086 64.0931 23.9332 64.0598 23.9332 64.0598C23.8578 64.0266 23.7824 63.9933 24.0208 63.9634C23.9121 64.0055 23.8368 63.9723 23.7071 63.9601ZM23.754 65.6916C23.6997 65.7127 23.6786 65.6583 23.6032 65.6251L23.754 65.6916ZM23.3738 65.8391C23.4492 65.8723 23.4703 65.9266 23.5668 66.0142L23.416 65.9477C23.3949 65.8934 23.3195 65.8602 23.3738 65.8391C23.3195 65.8602 23.3195 65.8602 23.3738 65.8391C23.3738 65.8391 23.3195 65.8602 23.3738 65.8391ZM23.262 66.195C23.2409 66.1406 23.1655 66.1074 23.1444 66.0531C23.1987 66.032 23.253 66.0109 23.2863 65.9356L23.4581 66.0563L23.2652 65.8812C23.2652 65.8812 23.2652 65.8812 23.3195 65.8602C23.4914 65.981 23.8561 66.2768 23.8018 66.2979C23.7264 66.2647 23.651 66.2314 23.5335 66.0896L23.7475 66.319C23.7475 66.319 23.5757 66.1982 23.63 66.1771L23.6932 66.3401L23.6721 66.2858L23.6932 66.3401C23.6932 66.3401 23.6932 66.3401 23.6389 66.3611C22.9215 65.6397 23.8739 66.6449 23.3916 66.2071L23.262 66.195ZM23.497 66.4787C23.4759 66.4244 23.4006 66.3911 23.497 66.4787V66.4787ZM23.4305 66.6295L23.5059 66.6627C23.527 66.717 23.527 66.717 23.5481 66.7713C23.4938 66.7924 23.4727 66.7381 23.4305 66.6295ZM23.5813 66.6959C23.6024 66.7502 23.6024 66.7502 23.6024 66.7502C23.6024 66.7502 23.6024 66.7502 23.5813 66.6959ZM23.4273 66.9432C23.5027 66.9764 23.5027 66.9764 23.4484 66.9975C23.4484 66.9975 23.4484 66.9975 23.4273 66.9432ZM23.4905 67.1061C23.587 67.1936 23.608 67.2479 23.6502 67.3566C23.608 67.2479 23.5659 67.1393 23.4905 67.1061ZM23.7345 67.5738C23.7556 67.6281 23.7766 67.6824 23.8188 67.7911C23.7645 67.8121 23.7434 67.7578 23.6891 67.7789C23.668 67.7246 23.647 67.6703 23.6348 67.8C23.6137 67.7457 23.5926 67.6914 23.5505 67.5827C23.6048 67.5617 23.6802 67.5949 23.7345 67.5738ZM23.5294 67.5284C23.5505 67.5827 23.5926 67.6914 23.6137 67.7457L23.4962 67.6038C23.4962 67.6038 23.4962 67.6038 23.4419 67.6249L23.0982 67.3833C23.2489 67.4498 23.3786 67.4619 23.5294 67.5284ZM22.7301 67.4011C22.7845 67.3801 22.7845 67.3801 22.7301 67.4011C22.7845 67.3801 22.7845 67.3801 22.7301 67.4011C22.7845 67.3801 22.7845 67.3801 22.7301 67.4011C22.8055 67.4344 22.8055 67.4344 22.8055 67.4344L22.8144 67.6184L22.8355 67.6727L22.8566 67.727C22.8144 67.6184 22.8234 67.8024 22.8201 68.1161L22.7658 68.1372C22.7447 68.0829 22.778 68.0075 22.7569 67.9532C22.7569 67.9532 22.8112 67.9321 22.7901 67.8778L22.7358 67.8988C22.7269 67.7148 22.718 67.5308 22.6969 67.4765C22.6848 67.6062 22.6726 67.7359 22.6815 67.9199C22.6272 67.941 22.6483 67.9953 22.594 68.0164C22.6183 67.757 22.6426 67.4976 22.6337 67.3136C22.6459 67.1839 22.6037 67.0753 22.5826 67.0209L22.6369 66.9999C22.7545 67.1417 22.7755 67.196 22.7301 67.4011ZM22.7456 66.9577C22.7666 67.012 22.7666 67.012 22.7456 66.9577V66.9577ZM22.607 66.7616C22.628 66.8159 22.628 66.8159 22.5948 66.8912C22.628 66.8159 22.607 66.7616 22.607 66.7616ZM22.5826 67.0209C22.5826 67.0209 22.6369 66.9999 22.5826 67.0209C22.6126 67.2593 22.6426 67.4976 22.5972 67.7027C22.5429 67.7237 22.4343 67.7659 22.5551 67.5941C22.5007 67.6151 22.5007 67.6151 22.4675 67.6905C22.4675 67.6905 22.4464 67.6362 22.5007 67.6151C22.5007 67.6151 22.5551 67.5941 22.6094 67.573C22.6969 67.4765 22.5883 67.5187 22.534 67.5397C22.534 67.5397 22.5129 67.4854 22.5672 67.4643C22.6215 67.4433 22.6005 67.389 22.7091 67.3468C22.6548 67.3679 22.6215 67.4433 22.6215 67.4433C22.6337 67.3136 22.6248 67.1296 22.658 67.0542C22.5283 67.042 22.5283 67.042 22.5826 67.0209C22.5494 67.0963 22.5162 67.1717 22.504 67.3014C22.4829 67.2471 22.5705 67.1506 22.5826 67.0209ZM22.0695 67.47L22.2114 67.3525C22.2114 67.3525 22.2324 67.4068 22.1781 67.4279C22.1781 67.4279 22.1238 67.4489 22.0695 67.47ZM22.4529 67.0088C22.5162 67.1717 22.4075 67.2139 22.4197 67.0842L22.4529 67.0088C22.4197 67.0842 22.4197 67.0842 22.4529 67.0088ZM22.3354 66.8669C22.3354 66.8669 22.3565 66.9212 22.3022 66.9423C22.3565 66.9212 22.3565 66.9212 22.3354 66.8669ZM22.2446 67.2771C22.1903 67.2982 22.136 67.3192 22.136 67.3192L22.2446 67.2771ZM22.0873 67.838C22.1538 67.6873 21.9787 67.8802 22.0452 67.7294C22.0784 67.654 22.1327 67.6329 22.187 67.6119C22.1749 67.7416 22.1084 67.8923 22.0962 68.022C22.0419 68.0431 21.9876 68.0642 21.9333 68.0853L21.9665 68.0099L21.9333 68.0853C21.879 68.1063 21.8247 68.1274 21.8036 68.0731L21.8368 67.9977C21.8701 67.9223 21.9787 67.8802 22.0873 67.838ZM21.9852 67.2528C21.9309 67.2738 21.9309 67.2738 21.9852 67.2528C21.9641 67.1984 21.9641 67.1984 21.9852 67.2528C21.9641 67.1984 21.9641 67.1984 21.9852 67.2528ZM21.8377 66.8726C21.8588 66.9269 21.8044 66.948 21.8377 66.8726C21.8044 66.948 21.8377 66.8726 21.8377 66.8726ZM21.1138 66.7785C21.1803 66.6277 21.2014 66.6821 21.31 66.6399C21.2224 66.7364 21.1892 66.8118 21.1138 66.7785ZM17.5333 66.7306C17.5666 66.6552 17.5666 66.6552 17.5333 66.7306C17.5666 66.6552 17.5123 66.6763 17.5333 66.7306ZM18.887 67.6426C18.9413 67.6215 18.9746 67.5461 19.0832 67.504C19.0289 67.525 18.9413 67.6215 18.887 67.6426C18.9413 67.6215 18.9413 67.6215 18.887 67.6426ZM19.1343 67.7966C19.1343 67.7966 19.1886 67.7755 19.1343 67.7966C19.1221 67.9263 19.1764 67.9052 19.1343 67.7966ZM22.1634 70.9329C22.1634 70.9329 22.2177 70.9119 22.1634 70.9329C22.2177 70.9119 22.2388 70.9662 22.2388 70.9662L22.2056 71.0416C22.1845 70.9873 22.1634 70.9329 22.1634 70.9329ZM22.2056 71.0416L22.2599 71.0205C22.2809 71.0748 22.2266 71.0959 22.2056 71.0416ZM23.3177 72.2973C23.2966 72.2429 23.2966 72.2429 23.3298 72.1675C23.3088 72.1132 23.3631 72.0922 23.3209 71.9835C23.3209 71.9835 23.3209 71.9835 23.3753 71.9625C23.4174 72.0711 23.3842 72.1465 23.4052 72.2008L23.3177 72.2973ZM23.7011 71.836C23.7433 71.9447 23.7643 71.999 23.689 71.9657C23.7433 71.9446 23.7222 71.8903 23.7011 71.836Z" fill="#CBECFF"/>
</svg>
