<svg width="21" height="21" viewBox="0 0 21 21" fill="none" xmlns="http://www.w3.org/2000/svg">
<path fill-rule="evenodd" clip-rule="evenodd" d="M14.6908 0H5.59936C2.51194 0 0.00012207 2.51194 0.00012207 5.59936V14.6908C0.00012207 17.7784 2.51194 20.2902 5.59936 20.2902H14.6908C17.7785 20.2902 20.2903 17.7782 20.2903 14.6908V5.59936C20.2904 2.51194 17.7785 0 14.6908 0ZM10.1451 4.91683C7.26222 4.91683 4.91686 7.26219 4.91686 10.1451C4.91686 13.0279 7.26222 15.3731 10.1451 15.3731C13.028 15.3731 15.3734 13.0279 15.3734 10.1451C15.3734 7.26219 13.028 4.91683 10.1451 4.91683ZM10.1451 13.5728C8.25499 13.5728 6.71711 12.0351 6.71711 10.145C6.71711 8.25472 8.25487 6.71695 10.1451 6.71695C12.0354 6.71695 13.5732 8.25472 13.5732 10.145C13.5732 12.0351 12.0353 13.5728 10.1451 13.5728ZM14.6601 3.77681C14.9051 3.53078 15.2458 3.39036 15.5926 3.39036C15.9407 3.39036 16.2815 3.53078 16.5264 3.77681C16.7724 4.02164 16.9128 4.36249 16.9128 4.71054C16.9128 5.05738 16.7724 5.39823 16.5264 5.64426C16.2803 5.8891 15.9407 6.03072 15.5926 6.03072C15.2458 6.03072 14.905 5.8891 14.6601 5.64426C14.4141 5.39823 14.2725 5.0575 14.2725 4.71054C14.2725 4.36249 14.414 4.02164 14.6601 3.77681Z" fill="#52BFFF"/>
</svg>
