<svg width="12" height="23" viewBox="0 0 12 23" fill="none" xmlns="http://www.w3.org/2000/svg">
<path d="M8.13721 4.71541C8.16807 4.68052 8.31236 4.56654 8.87902 4.56654L10.5974 4.56585C11.2018 4.56585 11.6933 4.07331 11.6933 3.46782V1.10252C11.6933 0.498069 11.2025 0.00552645 10.5992 0.00449022L8.83395 0C7.13071 0 6.11028 0.118984 5.0742 1.18403C4.04277 2.24424 3.49749 3.72428 3.49749 5.4639V7.66221H1.38636C0.781949 7.66221 0.290283 8.15476 0.290283 8.76024V11.376C0.290283 11.9814 0.781949 12.474 1.38636 12.474H3.49749V21.0944C3.49749 21.6998 3.98915 22.1924 4.59356 22.1924H6.92959C7.53401 22.1924 8.02567 21.6998 8.02567 21.0944V12.4742H10.6062C11.2106 12.4742 11.7021 11.9814 11.7021 11.3763L11.7035 8.76042C11.7035 8.36269 11.4875 7.99466 11.1396 7.80003C10.9784 7.70988 10.7909 7.66221 10.5974 7.66221H8.02567V5.38842C8.02567 4.93664 8.08635 4.77309 8.13721 4.71541Z" fill="#52BFFF"/>
</svg>
