<svg width="25" height="22" viewBox="0 0 25 22" fill="none" xmlns="http://www.w3.org/2000/svg">
<path d="M10.0934 14.2307C9.91111 14.4035 9.80055 14.6386 9.78368 14.8892L9.46822 19.5747C9.42934 20.1521 9.93934 20.6479 10.3579 20.2482C10.4226 20.1864 10.486 20.12 10.5516 20.0511L12.7031 17.8799C13.0586 17.5211 13.6257 17.4837 14.0252 17.7927L19.0737 21.6967C20.1279 22.3171 20.8706 21.9904 21.155 20.6726L24.9278 2.00428C24.9279 2.00379 24.9282 2.00335 24.9285 2.00299C24.9289 2.00263 24.9291 2.00216 24.9292 2.00168C25.2631 0.356646 24.3653 -0.28659 23.3384 0.117045L1.16075 9.0831C-0.352826 9.7035 -0.329909 10.5945 0.903454 10.9982L6.11372 12.7095C6.40406 12.8049 6.72207 12.7622 6.97704 12.5938L19.7435 4.15842C20.3633 3.72503 20.9268 3.96483 20.4633 4.39822L10.0934 14.2307Z" fill="#52BFFF"/>
</svg>
