<svg width="16" height="16" viewBox="0 0 16 16" fill="none" xmlns="http://www.w3.org/2000/svg">
<path d="M0.438371 6.78733C0.155706 6.02381 -0.048982 5.24405 0.0127494 4.41555C0.0517376 3.90545 0.24343 3.47008 0.617067 3.11269C1.02319 2.72931 1.40658 2.32643 1.80621 1.93655C2.32605 1.4232 2.97911 1.42645 3.49895 1.93655C3.8206 2.2517 4.13901 2.57335 4.45741 2.89501C4.76607 3.20366 5.07797 3.51232 5.38663 3.82423C5.92922 4.37331 5.93247 5.01337 5.38988 5.5592C5 5.94909 4.61336 6.34222 4.21698 6.7256C4.11301 6.82632 4.10327 6.9108 4.1585 7.03751C4.41842 7.66132 4.79531 8.2169 5.21768 8.73675C6.06892 9.78293 7.03064 10.7122 8.17754 11.4302C8.42447 11.5829 8.69413 11.6966 8.95081 11.8363C9.08402 11.9078 9.17174 11.885 9.27896 11.7746C9.66559 11.375 10.062 10.9818 10.4584 10.5887C10.9782 10.0753 11.628 10.0721 12.1478 10.5887C12.7847 11.219 13.4182 11.8526 14.0485 12.4894C14.5781 13.0222 14.5749 13.6753 14.042 14.2113C13.6814 14.5752 13.3012 14.9196 12.9633 15.2998C12.4695 15.8521 11.8457 16.034 11.1374 15.9951C10.1042 15.9398 9.15225 15.5954 8.23277 15.1503C6.19239 14.1594 4.45091 12.785 2.9921 11.05C1.91343 9.76344 1.0232 8.36636 0.438371 6.78733ZM15.2442 7.95048C15.6623 7.95048 16.005 7.61049 15.9655 7.19427C15.6069 3.41345 12.5879 0.394405 8.80704 0.0358166C8.39082 -0.00365986 8.05083 0.339059 8.05083 0.75715C8.05083 1.17524 8.39128 1.50949 8.80651 1.55831C11.752 1.90461 14.0967 4.2493 14.443 7.1948C14.4918 7.61003 14.8261 7.95048 15.2442 7.95048ZM11.5695 7.19882C11.6558 7.60791 11.9864 7.95048 12.4045 7.95048C12.8226 7.95048 13.1674 7.60957 13.1059 7.19603C12.7765 4.98149 11.0198 3.22481 8.80528 2.89539C8.39174 2.83387 8.05083 3.1787 8.05083 3.5968C8.05083 4.01489 8.39341 4.34548 8.80249 4.43179C9.47704 4.57412 10.0963 4.90802 10.5948 5.4065C11.0933 5.90498 11.4272 6.52427 11.5695 7.19882Z" fill="url(#paint0_linear)"/>
<defs>
<linearGradient id="paint0_linear" x1="20.3805" y1="-15.0943" x2="-9.66381" y2="29.6556" gradientUnits="userSpaceOnUse">
<stop stop-color="#B1E2FF"/>
<stop offset="1" stop-color="#68C7FF"/>
</linearGradient>
</defs>
</svg>
