<svg width="20" height="20" viewBox="0 0 20 20" fill="none" xmlns="http://www.w3.org/2000/svg">
<path d="M2.43757 8.76841C2.15432 8.00333 1.9492 7.22197 2.01106 6.39178C2.05013 5.88064 2.24222 5.44438 2.61663 5.08626C3.0236 4.7021 3.40778 4.29839 3.80824 3.90772C4.32916 3.39332 4.98357 3.39658 5.50449 3.90772C5.82681 4.22351 6.14588 4.54582 6.46494 4.86813C6.77424 5.17742 7.08679 5.48671 7.39609 5.79925C7.9398 6.34946 7.94306 6.99082 7.39934 7.53777C7.00865 7.92845 6.62122 8.32238 6.22402 8.70655C6.11983 8.80747 6.11006 8.89212 6.16541 9.01909C6.42587 9.64418 6.80354 10.2009 7.22679 10.7218C8.0798 11.7701 9.0435 12.7012 10.1928 13.4207C10.4402 13.5738 10.7105 13.6877 10.9677 13.8277C11.1011 13.8993 11.189 13.8765 11.2965 13.7658C11.6839 13.3654 12.0811 12.9715 12.4783 12.5775C12.9993 12.0631 13.6504 12.0599 14.1713 12.5775C14.8095 13.2091 15.4443 13.844 16.0759 14.4821C16.6066 15.016 16.6034 15.6704 16.0694 16.2076C15.708 16.5722 15.3271 16.9173 14.9885 17.2982C14.4936 17.8517 13.8685 18.034 13.1588 17.9949C12.1235 17.9396 11.1695 17.5945 10.2481 17.1485C8.20352 16.1555 6.45843 14.7783 4.99659 13.0398C3.91568 11.7506 3.0236 10.3507 2.43757 8.76841ZM17.2741 9.93393C17.693 9.93393 18.0364 9.59325 17.9969 9.17617C17.6376 5.38764 14.6123 2.36243 10.8236 2.00311C10.4065 1.96355 10.0658 2.30697 10.0658 2.72591C10.0658 3.14486 10.407 3.47979 10.8231 3.52871C13.7747 3.87572 16.1242 6.22519 16.4712 9.1767C16.5202 9.59278 16.8551 9.93393 17.2741 9.93393ZM13.5918 9.18073C13.6783 9.59065 14.0096 9.93393 14.4285 9.93393C14.8475 9.93393 15.193 9.59232 15.1314 9.17793C14.8013 6.95888 13.041 5.19861 10.8218 4.86852C10.4074 4.80688 10.0658 5.15241 10.0658 5.57136C10.0658 5.9903 10.4091 6.32156 10.819 6.40806C11.495 6.55067 12.1156 6.88526 12.6151 7.38475C13.1146 7.88425 13.4492 8.50481 13.5918 9.18073Z" fill="#52BFFF"/>
</svg>
