<svg width="20" height="20" viewBox="0 0 20 20" fill="none" xmlns="http://www.w3.org/2000/svg">
<path d="M10 2C14.4113 2 18 5.58866 18 10C18 14.4113 14.4113 18 10 18C5.58866 18 2 14.4113 2 10C2 5.58866 5.58866 2 10 2ZM9.33334 10C9.33334 10.3687 9.63134 10.6667 10 10.6667H12.6667C13.0353 10.6667 13.3333 10.3687 13.3333 10C13.3333 9.63134 13.0353 9.33334 12.6667 9.33334H10.6667V5.33334C10.6667 4.96469 10.3687 4.66669 10 4.66669C9.63134 4.66669 9.33334 4.96469 9.33334 5.33334V10Z" fill="#52BFFF"/>
</svg>
