<svg width="19" height="14" viewBox="0 0 19 14" fill="none" xmlns="http://www.w3.org/2000/svg">
<path fill-rule="evenodd" clip-rule="evenodd" d="M18.1602 11.2983C18.5387 9.84285 18.5387 6.82454 18.5387 6.82454C18.5387 6.82454 18.5539 3.79124 18.1602 2.3358C17.9481 1.53915 17.3272 0.91078 16.5397 0.696404C15.1011 0.29808 9.34647 0.29808 9.34647 0.29808C9.34647 0.29808 3.59186 0.29808 2.15321 0.681188C1.3808 0.895565 0.744643 1.53915 0.53274 2.3358C0.154053 3.79124 0.154053 6.80932 0.154053 6.80932C0.154053 6.80932 0.154053 9.84285 0.53274 11.2829C0.744867 12.0795 1.36576 12.7079 2.15321 12.9222C3.6069 13.3206 9.34647 13.3206 9.34647 13.3206C9.34647 13.3206 15.1011 13.3206 16.5397 12.9375C17.3272 12.7231 17.9481 12.0949 18.1602 11.2983ZM12.2994 6.80932L7.51409 9.59759V4.02106L12.2994 6.80932Z" fill="url(#paint0_linear)"/>
<defs>
<linearGradient id="paint0_linear" x1="23.6187" y1="-12.039" x2="3.08359" y2="31.143" gradientUnits="userSpaceOnUse">
<stop stop-color="#C6EAFF"/>
<stop offset="1" stop-color="#81D0FF"/>
</linearGradient>
</defs>
</svg>
