<svg width="16" height="16" viewBox="0 0 16 16" fill="none" xmlns="http://www.w3.org/2000/svg">
<path d="M8 1C4.14217 1 1 4.12649 1 7.99959C1 9.19735 1.31106 10.364 1.90217 11.4061L1.04661 13.9726C0.953282 14.2526 1.03106 14.5637 1.23328 14.7659C1.46418 14.9736 1.75123 15.0625 2.02662 14.9526L4.59333 14.097C5.6355 14.6881 6.80222 14.9992 8 14.9992C11.8733 14.9992 15 11.8571 15 7.99965C15 4.12649 11.8733 1 8 1V1ZM4.88889 8.77733C4.46884 8.77733 4.11111 8.41962 4.11111 7.99959C4.11111 7.56412 4.46884 7.22186 4.88889 7.22186C5.32439 7.22186 5.66667 7.56412 5.66667 7.99959C5.66667 8.41962 5.32439 8.77733 4.88889 8.77733ZM8 8.77733C7.57995 8.77733 7.22222 8.41962 7.22222 7.99959C7.22222 7.56412 7.57995 7.22186 8 7.22186C8.4355 7.22186 8.77778 7.56412 8.77778 7.99959C8.77778 8.41962 8.4355 8.77733 8 8.77733ZM11.1111 8.77733C10.6911 8.77733 10.3333 8.41962 10.3333 7.99959C10.3333 7.56412 10.6911 7.22186 11.1111 7.22186C11.5466 7.22186 11.8889 7.56412 11.8889 7.99959C11.8889 8.41962 11.5466 8.77733 11.1111 8.77733Z" fill="white"/>
</svg>
