<svg width="84" height="102" viewBox="0 0 84 102" fill="none" xmlns="http://www.w3.org/2000/svg">
<path d="M31.8349 85.6822C32.0445 85.5275 32.3549 85.8165 32.589 85.8705C32.878 85.5601 32.358 85.4257 32.1239 85.3718C32.5432 85.0624 33.221 85.0156 33.7665 85.2283C34.1033 85.4655 33.5812 85.5916 33.6596 85.5662C33.9934 86.1941 34.7546 85.4706 34.8014 86.1483C34.6681 86.5381 34.2508 86.5869 34.145 86.7946C33.8336 86.6358 34.0188 86.2725 33.8896 86.1412L33.913 86.4801C33.7827 86.4791 33.5751 86.3732 33.5761 86.2429C33.4428 86.6327 34.3241 87.2128 34.4757 87.8132C34.606 87.8143 34.8401 87.8682 34.8675 87.686L34.7118 87.6067C34.8187 87.2688 35.2329 87.6107 35.183 87.3238C35.4954 87.3523 35.8862 87.3553 35.988 87.6688L35.7509 88.0056C35.8557 87.9283 35.7794 87.6932 35.6226 87.7441C35.8313 87.7196 35.5911 88.4473 36.0358 88.2163L36.0908 87.8519C36.4032 87.8805 36.8734 87.7278 36.9751 88.0413C37.1604 87.678 36.9232 88.0148 37.083 87.5731C36.8184 88.0921 36.618 87.0744 36.3788 87.6718C36.6434 87.1528 36.3299 87.2546 36.4378 86.7865C36.333 86.8638 36.3055 87.046 36.2292 86.8109C36.2027 86.8628 36.1508 86.8363 36.1244 86.8882C36.1498 86.9666 36.0969 87.0704 36.0704 87.1223C35.757 87.224 35.4985 86.9615 35.3163 86.934C35.2655 86.7773 35.4731 86.8831 35.5525 86.7274L35.2655 86.7773C35.5016 86.5707 35.3744 86.1789 35.7641 86.3122L35.5576 86.0761C35.5596 85.8156 35.4568 85.6324 35.2746 85.6049C35.2238 85.4482 34.8065 85.497 35.067 85.4991L34.6783 85.2355L34.7048 85.1836C34.4473 84.7907 33.7441 84.7592 33.9324 84.0051C33.7767 83.9257 33.621 83.8463 33.5711 83.5593L33.7288 83.3782C33.5212 83.2723 33.6556 82.7523 33.3686 82.8022C33.8418 82.2588 33.0368 81.9137 32.9615 81.5484L32.6735 81.7285C32.5972 81.4934 32.4161 81.3357 32.183 81.1515L31.9215 81.2797C31.5836 81.1728 31.8228 80.5755 31.5908 80.261C31.721 80.262 31.7465 80.3404 31.6935 80.4442C32.1159 79.744 30.8397 79.6819 31.1308 79.111C30.9751 79.0316 31.0016 78.9797 31.0545 78.8759C31.0545 78.8759 31.0545 78.8759 31.1064 78.9024C31.1064 78.9024 31.1064 78.9024 31.0809 78.824C31.1074 78.7721 31.1339 78.7202 31.1868 78.6164C31.1603 78.6683 31.1074 78.7721 31.1074 78.7721C31.082 78.6938 31.0046 78.5889 30.8489 78.5096L31.1369 78.3294C31.2163 78.1737 30.9548 78.3019 30.7716 78.4047C30.7197 78.3783 30.6159 78.3254 30.564 78.2989C31.0352 78.016 30.3055 78.0363 30.7248 77.727C30.4642 77.7249 28.0405 67.2861 27.4666 67.3858C27.5449 67.3603 27.5714 67.3084 27.5968 67.3868C27.5978 67.2565 27.6253 67.0744 27.4696 66.995L27.836 66.7894L27.2376 66.6805C27.4218 66.4475 27.5531 66.3182 27.8909 66.4251C27.32 66.134 27.5806 66.1361 27.0615 65.8715L27.2966 65.7951C27.2458 65.6384 26.8295 65.557 27.0392 65.4023C27.4595 64.9627 26.6861 63.9145 27.0056 63.0311C26.3258 63.3384 27.2438 62.564 26.6698 62.6637C26.853 62.561 26.9059 62.4571 27.0616 62.5365C26.8042 62.1437 27.197 61.8862 26.7034 61.7C26.8866 61.5972 26.9639 61.702 27.0423 61.6766C26.9904 61.6501 26.8866 61.5972 26.9395 61.4934C27.0443 61.4161 27.1217 61.5209 27.1736 61.5474C27.0464 61.1555 26.4989 61.2034 26.0033 61.2776C26.1875 61.0446 26.162 60.9662 25.7722 60.8329C25.9554 60.7301 26.0867 60.6009 26.163 60.836C26.1641 60.7057 26.2221 59.9506 25.8048 59.9994C25.9097 59.9221 25.7804 59.7908 25.7285 59.7643C25.7051 59.4255 25.7051 59.4255 25.6034 59.112L25.5504 59.2158C25.0558 59.1598 25.4222 58.9543 25.3459 58.7192L25.3978 58.7456C25.7153 58.1228 25.1912 58.5095 25.5606 57.9132L25.2736 57.963C24.6223 57.9579 25.6166 57.4186 25.3327 57.0777L25.1495 57.1805C24.9165 56.9962 25.8038 50.9356 25.9097 50.7279C25.988 50.7025 26.0135 50.7809 26.0389 50.8592C26.4073 50.3931 25.5962 50.8297 25.5209 50.4644C25.756 50.388 26.0674 50.5468 26.1213 50.3127C26.3045 50.21 25.4232 49.6299 25.8425 49.3205C25.6858 49.3714 25.5026 49.4742 25.3998 49.291C25.3235 49.0559 26.0562 48.6448 25.5372 48.3802C25.6156 48.3547 25.6156 48.3547 25.694 48.3293C25.5912 48.1461 25.4904 47.7024 25.2309 47.5701C26.326 47.4744 24.772 46.2898 25.8131 46.4283L25.8436 45.8553L25.9474 45.9082C26.0807 45.5185 25.8212 45.3862 25.6401 45.2284C25.7449 45.1511 25.8222 45.2559 25.8222 45.2559C26.1388 44.7633 28.9472 31.7749 28.5605 31.2508L28.8729 31.2793C28.6918 31.1215 29.5558 30.5812 29.3258 30.0062C29.3777 30.0326 29.4296 30.0591 29.4815 30.0855C29.2526 29.3803 30.715 28.9488 29.7034 28.3677L29.5508 27.8975C29.3126 28.3647 29.0837 27.6594 28.8221 27.7876C28.7977 27.579 29.3462 27.4009 29.2923 27.635L29.2139 27.6604C29.7848 27.9515 29.6353 27.0905 29.9986 27.2758C30.3192 26.2622 31.0031 25.4338 31.4264 24.6034L30.9583 24.4955L31.1171 24.1841C31.2738 24.1332 31.4814 24.239 31.3755 24.4466C31.688 24.4751 31.3532 23.9775 31.2494 23.9246C31.6167 23.5887 37.5792 14.3527 37.6586 14.197L37.6861 14.0148L37.6077 14.0403C37.5314 13.8052 37.3238 13.6993 37.4561 13.4398C37.5874 13.3106 37.7685 13.4683 37.795 13.4164C37.8469 13.4429 37.8469 13.4429 37.8479 13.3126L38.085 12.9758L37.6423 12.9463C37.566 12.7112 31.9892 22.6016 31.4947 22.5456C32.2498 22.6036 38.3588 11.2844 38.6458 11.2345C38.5705 10.8692 38.6763 10.6616 38.887 10.3766C38.8086 10.4021 38.3934 10.1904 38.6031 10.0357C39.3022 10.5883 39.1781 9.80573 39.8284 9.94109C39.3857 9.91157 40.1988 9.21448 39.5221 9.13102C39.7317 8.97633 39.8335 9.28978 40.0421 9.26536C40.0472 8.61405 40.9092 8.3342 41.2267 7.71139C41.1229 7.65847 40.9407 7.63099 40.8644 7.3959L41.5676 7.42747C41.5951 7.2453 41.0761 6.9807 41.5452 6.95832C41.4414 6.90539 41.3112 6.90437 41.3122 6.77411C41.9147 6.36196 42.2068 5.66079 42.5243 5.03798C42.8683 4.36327 43.2377 3.76691 44.0223 3.38224C43.7354 3.4321 43.7883 3.32831 43.8677 3.1726C43.7628 3.24994 43.6082 3.0403 43.4524 2.96092L44.0804 2.62713C43.77 2.3381 44.3195 2.02975 43.9827 1.79263L43.9552 1.9748C43.6458 1.55551 42.8103 1.78345 42.2913 1.51884C42.6261 2.01649 41.2472 1.77121 41.7621 2.55686C41.6054 2.60774 41.6593 2.37368 41.4771 2.3462C41.6318 2.55584 41.6308 2.68611 41.3947 2.89269L41.3693 2.81433C41.0517 3.43714 40.7118 3.5908 40.1602 4.15967L40.4462 4.24007C40.3149 4.36932 40.2111 4.3164 40.1063 4.39374C40.4157 4.81303 40.3699 4.00499 40.7311 4.45074C40.0809 4.31538 40.0717 5.48774 39.3705 5.19565C39.2128 5.3768 39.7084 5.30252 39.5761 5.56202L39.3939 5.53454L39.5486 5.74418C39.4173 5.87343 39.1832 5.81949 39.0275 5.74011C39.054 5.68821 39.0285 5.60985 39.055 5.55794C38.768 5.6078 38.7639 6.12885 38.6856 6.15429L38.9471 6.02607C38.7069 6.75371 37.9986 7.37346 37.9141 8.18048L38.0963 8.20796C38.0393 8.83281 31.8133 18.4576 31.626 19.0814L31.5741 19.055C31.625 19.2117 31.5975 19.3939 31.5181 19.5496C31.4418 19.3145 31.1009 19.5984 31.0245 19.3633C30.9411 20.0401 31.0479 19.7022 31.3034 20.3556L31.0693 20.3016C31.1975 20.5632 31.2494 20.5896 31.169 20.8756C31.1456 20.5367 30.7782 20.8725 30.651 20.4807C29.8929 20.8135 30.6683 21.6012 29.8094 21.4903C30.248 22.0408 30.4108 21.2084 30.4617 21.3651C30.7223 21.3671 30.7711 21.7844 30.6134 21.9655C30.534 22.1212 29.6761 21.88 29.4379 22.3471C29.4644 22.2952 29.4125 22.2688 29.439 22.2169C29.2039 22.2932 29.4613 22.686 29.1479 22.7878C29.4583 23.0768 29.0156 23.0473 29.4562 23.3373L29.5641 22.8692C29.5875 23.2081 30.0271 23.6284 29.556 23.9113C29.4522 23.8584 29.4277 23.6498 29.3504 23.5449C29.1418 23.5694 29.3483 23.8055 29.1133 23.8818C28.6462 23.6436 29.2741 23.3098 29.0431 22.8651C28.7561 22.915 29.1682 23.5174 28.7021 23.149C29.2456 23.6223 28.4121 23.5897 28.7723 24.1657L28.5128 24.0334C28.5383 24.1118 28.641 24.2949 28.6146 24.3468L28.3307 24.0059C28.5362 24.3723 27.8584 24.4191 27.9083 24.7061C28.121 24.1606 28.2991 24.7091 28.6125 24.6074C28.7367 25.39 27.7261 24.6786 27.5898 25.4592C27.5908 25.3289 27.9307 25.1752 27.9816 25.3319C27.8503 25.4612 27.6671 25.564 27.5104 25.6149C27.376 26.1349 27.8228 25.6434 27.951 25.9049C27.5338 25.9537 28.0009 26.1919 28.0508 26.4789L27.7648 26.3985C27.3699 26.9165 28.3611 26.7679 27.9408 27.2075L27.605 26.8401L27.6549 27.1271L27.3435 26.9684C27.4707 27.3602 27.3923 27.3856 27.2335 27.697C27.4941 27.6991 27.779 27.9097 27.7251 28.1438C27.4635 28.272 27.492 27.9596 27.3851 28.2974C27.204 28.1397 27.0229 27.982 27.3099 27.9321C27.206 27.8792 27.1287 27.7744 27.0768 27.7479C26.8153 27.8761 26.8906 28.2415 26.8376 28.3453C26.8641 28.2934 26.8906 28.2415 26.9689 28.216C26.9689 28.216 27.0198 28.3728 27.0707 28.5295C27.1216 28.6862 27.2243 28.8694 27.2243 28.8694C27.0676 28.9203 26.9903 28.8154 26.9648 28.7371C26.9638 28.8673 27.0931 28.9986 27.092 29.1289C26.8844 29.023 26.5985 28.9426 26.5221 28.7076L26.6738 29.308C26.5435 29.307 26.3074 29.5135 26.2301 29.4087C26.0194 29.6937 26.5364 30.2188 26.2473 30.5292C26.2992 30.5557 26.3247 30.634 26.3501 30.7124C26.1914 31.0238 22.9646 44.1913 23.2211 44.7144L22.7509 44.8671C22.7743 45.206 23.3778 44.6636 23.4256 45.2111C23.4744 45.6283 23.0084 45.2599 22.8771 45.3891C23.0837 45.6253 23.4714 46.0191 23.0521 46.3285C22.9748 46.2236 23.0796 46.1463 23.0287 45.9896L22.7142 46.2216C22.3265 45.8278 22.5107 45.5947 22.1443 45.8003C22.5606 45.8817 22.5585 46.1422 22.5565 46.4027C22.5545 46.6633 22.5524 46.9238 23.0205 47.0317L22.8109 47.1864C22.8374 47.1345 22.7855 47.108 22.8119 47.0561C22.3926 47.3655 23.4347 47.3736 23.2749 47.8153C23.1956 47.971 23.0643 48.1002 22.935 47.969L23.1406 48.3353C23.0877 48.4391 22.9839 48.3862 22.9584 48.3078L23.0063 48.8554C23.162 48.9347 23.3431 49.0925 23.4724 49.2238C23.3411 49.353 23.3685 49.1709 23.2902 49.1963L23.5222 49.5108C23.2607 49.639 23.0541 49.4029 23.108 49.1688C22.246 49.4487 23.3146 49.4049 22.8149 50.0002L22.7132 49.6868C22.2165 49.8913 22.3712 50.101 22.0822 50.4114C22.2654 50.3086 22.8689 49.7662 23.1009 50.0806C23.048 50.1844 22.995 50.2883 23.1762 50.446C22.8373 50.4694 22.9401 50.6526 22.9645 50.8612L22.5737 50.8582C22.7019 51.1197 23.1203 56.7998 23.3279 56.9056C23.3258 57.1662 22.9605 57.2415 22.7254 57.3178C22.6959 57.7605 23.223 56.983 23.3492 57.5051C23.2424 57.8429 23.4225 58.1309 23.7064 58.4719C23.5741 58.7314 23.4459 58.4698 23.3411 58.5472L23.7044 58.7324C23.6779 58.7843 23.5995 58.8097 23.5476 58.7833C23.7288 58.941 23.9649 58.7344 24.0931 58.996C24.5358 59.0255 23.4886 59.6686 24.086 59.9078C23.9812 59.9852 23.8255 59.9058 23.6687 59.9567C24.1084 60.377 24.0046 60.324 24.4971 60.6405L24.3119 61.0039C24.6009 60.6935 24.9897 60.9571 25.353 61.1423C25.4842 61.013 25.5891 60.9357 25.6674 60.9103L25.9514 61.2512C25.9249 61.3031 25.7427 61.2756 25.5606 61.2481C25.6125 61.2746 25.6644 61.3011 25.6644 61.3011C25.5066 61.4822 25.2726 61.4282 25.0385 61.3743C25.1433 61.297 25.1698 61.2451 25.2746 61.1677C24.9886 61.0873 24.7281 61.0853 24.493 61.1616C24.5449 61.1881 24.5968 61.2145 24.6223 61.2929C24.5704 61.2664 24.492 61.2919 24.4401 61.2654C24.4136 61.3173 24.492 61.2919 24.5958 61.3448L24.1775 61.5239L24.3862 61.4995L24.1989 62.1233C24.7698 62.4144 25.472 62.5762 25.8058 63.2041C25.4415 63.1491 25.2318 63.3038 24.8665 63.3791C25.2593 63.1217 24.5836 62.9079 24.6121 62.5955C24.5846 62.7777 24.4024 62.7502 24.3505 62.7237L24.8156 63.2224C24.4767 63.2458 24.6059 63.3771 24.5001 63.5847C25.1016 63.3028 24.9926 63.9012 25.2776 64.1119C25.0425 64.1882 24.8603 64.1607 24.8105 63.8737C24.3902 64.3133 25.6684 64.1149 25.3264 64.5291C25.301 64.4508 25.3275 64.3988 25.1972 64.3978C25.4048 64.5037 25.3753 64.9464 25.1412 64.8924L25.1158 64.8141C25.1381 65.2832 25.4434 66.2235 26.0174 66.1238C25.939 66.1493 25.3651 66.249 25.2348 66.248C25.2348 66.248 25.7294 66.3039 26.2759 66.3864C26.7705 66.4424 27.2651 66.4984 27.2651 66.4984C26.7695 66.5726 25.8006 67.1904 25.4383 66.8749C25.4373 67.0051 25.3579 67.1608 25.591 67.345C25.6439 67.2412 26.1934 66.9329 26.2708 67.0377C25.8505 67.4773 28.3577 77.2394 28.0412 77.732C28.1205 77.5763 28.8248 77.4776 28.8757 77.6343C28.7454 77.6333 28.1704 77.8633 28.1185 77.8368L28.951 77.9997C28.7953 77.9203 28.3505 78.1513 28.1928 78.3324C28.2976 78.2551 28.32 78.7242 28.4238 78.7772L28.5296 78.5696C28.5774 79.1171 29.6491 78.6825 29.8017 79.1527C29.6195 79.1252 28.8624 79.3277 28.9122 79.6147C29.303 79.6178 30.7634 79.4468 31.2305 79.685L31.0728 79.8661L31.4361 80.0514C30.8367 80.0727 29.5086 79.9842 28.9621 79.9017C28.9082 80.1358 28.7525 80.0564 28.8807 80.3179C28.7229 80.4991 28.5164 80.263 28.4909 80.1846L28.668 80.8634C29.0343 80.6578 29.2908 81.1809 29.5788 81.0008L28.8532 80.5001C29.2715 80.321 30.1569 80.38 30.3095 80.8502C30.2036 81.0578 29.5259 81.1046 29.4211 81.182C29.5513 81.183 29.8617 81.472 29.8088 81.5758L29.5228 81.4954C29.4943 81.8078 30.225 81.6572 29.9869 82.1243C29.9858 82.2546 29.6439 82.6688 29.879 82.5925C30.2209 82.1783 31.6335 81.4598 31.9988 81.3845C31.9724 81.4364 31.837 82.0867 31.6528 82.3198C31.4157 82.6566 30.687 82.5467 30.4764 82.8316C30.5812 82.7543 30.7633 82.7818 30.8152 82.8082C30.7878 82.9904 30.4753 82.9619 30.6565 83.1196C31.0747 82.9405 30.8875 83.5644 31.0218 83.0443C31.2549 83.2285 31.0717 83.3313 31.2264 83.541C31.4106 83.3079 32.2186 83.2621 32.3997 83.4199C32.2949 83.4972 32.1901 83.5746 32.1636 83.6265C32.3946 84.0712 32.3662 84.3836 32.6236 84.7765C32.5707 84.8803 32.5686 85.1408 32.36 85.1652C32.4903 85.1662 32.6206 85.1672 32.6979 85.2721C32.1717 85.9193 32.1249 85.2415 31.8349 85.6822ZM35.1423 85.8644C35.1434 85.7341 35.1179 85.6558 35.1423 85.8644V85.8644ZM37.6657 13.2851L37.5874 13.3106C37.5365 13.1539 37.6403 13.2068 37.6657 13.2851ZM22.8404 50.0786C22.763 49.9738 22.5819 49.816 22.7386 49.7652C23.1548 49.8466 22.9716 49.9494 22.8404 50.0786ZM24.5419 61.5788C24.5673 61.6572 24.5927 61.7356 24.5398 61.8394C24.4096 61.8384 24.4106 61.7081 24.5419 61.5788Z" fill="#CBECFF"/>
<path d="M45.73 92.9798C46.0414 93.1385 46.2744 93.3227 46.4301 93.4021C46.3263 93.3492 46.0933 93.165 46.249 93.2444C46.4566 93.3502 46.5339 93.455 46.7415 93.5609C46.5095 93.2464 45.4715 92.7172 44.5118 92.1625C44.8497 92.2694 44.7978 92.2429 44.409 91.9794L44.4355 91.9275C44.5912 92.0068 44.7988 92.1127 44.9281 92.244C44.9545 92.1921 45.0604 91.9845 44.3073 91.6659C44.463 91.7453 44.3337 91.614 44.2299 91.5611L44.4131 91.4583L44.2299 91.5611L44.178 91.5346C44.1261 91.5082 44.1526 91.4563 44.1526 91.4563C44.1526 91.4563 44.1791 91.4044 44.231 91.4308C44.231 91.4308 44.2045 91.4827 44.1526 91.4563L44.1272 91.3779C44.1536 91.326 44.232 91.3006 44.3103 91.2751L44.1272 91.3779L44.1007 91.4298C44.1007 91.4298 44.0488 91.4033 44.0234 91.325L43.945 91.3504C43.8931 91.324 43.7893 91.271 43.7374 91.2446C43.7639 91.1927 43.8158 91.2191 43.8158 91.2191C43.712 91.1662 43.9725 91.1683 44.0519 91.0126C44.1302 90.9871 44.1302 90.9871 44.1302 90.9871C44.1567 90.9352 44.1567 90.9352 44.1831 90.8833C44.1567 90.9352 44.1567 90.9352 44.1567 90.9352C44.1302 90.9871 44.0783 90.9607 44.0519 91.0126C44.0783 90.9607 44.1302 90.9871 44.1567 90.9352L44.1831 90.8833L44.0539 90.752C44.0274 90.8039 44.0274 90.8039 44.0793 90.8304C43.8962 90.9332 43.7913 91.0105 43.6346 91.0614C43.5827 91.0349 43.5308 91.0085 43.4789 90.982C43.6102 90.8528 43.7934 90.75 43.9247 90.6207C43.8463 90.6462 43.7415 90.7235 43.6631 90.749C43.6377 90.6706 43.3517 90.5902 43.6387 90.5403L43.5868 90.5139C43.7435 90.463 43.8219 90.4376 43.7954 90.4895C44.1099 90.2574 43.7171 90.5149 44.1363 90.2055C43.6906 90.5668 44.0855 90.0488 43.6133 90.462C43.9542 90.1781 43.8494 90.2554 44.0071 90.0743C44.0855 90.0488 44.1374 90.0753 44.1638 90.0234C44.2422 89.9979 44.3195 90.1028 44.4233 90.1557C44.6065 90.0529 44.4244 90.0254 44.1384 89.945C44.0865 89.9186 44.0081 89.944 43.9562 89.9175C44.061 89.8402 43.9827 89.8656 43.9043 89.8911C43.8524 89.8646 43.8524 89.8646 43.8005 89.8382L43.827 89.7862C44.061 89.8402 44.347 89.9206 44.348 89.7903C44.4264 89.7649 44.115 89.6061 43.8555 89.4738C43.7517 89.4209 43.6479 89.368 43.596 89.3415C43.7008 89.2642 43.7273 89.2123 43.5441 89.3151C43.4922 89.2886 43.4667 89.2102 43.597 89.2113L43.5451 89.1848L43.5716 89.1329C43.4932 89.1583 43.7039 88.8734 43.4942 89.0281C44.0702 88.6678 43.4963 88.7676 43.5756 88.6118L43.2876 88.792C43.2622 88.7136 43.1838 88.739 43.1055 88.7645C43.0536 88.738 42.9498 88.6851 42.8195 88.6841C42.8979 88.6586 42.8979 88.6586 42.9762 88.6332L42.9243 88.6067C43.2917 88.2709 42.3768 88.6546 42.7442 88.3187C42.6658 88.3442 42.6658 88.3442 42.7188 88.2404C42.7452 88.1885 42.8236 88.163 42.85 88.1111C42.7717 88.1366 42.7452 88.1885 42.7188 88.2404C42.7188 88.2404 42.6669 88.2139 42.5885 88.2394L42.8765 88.0592C42.9813 87.9819 42.7198 88.1101 42.5366 88.2129C42.4582 88.2383 42.4063 88.2119 42.3799 88.2638C42.5366 88.2129 42.5631 88.161 42.5112 88.1345C42.5376 88.0826 42.5376 88.0826 42.5376 88.0826C42.5376 88.0826 42.616 88.0572 42.6424 88.0053C42.5641 88.0307 42.5641 88.0307 42.4857 88.0562C42.4338 88.0297 42.33 87.9768 42.2262 87.9239C42.1743 87.8974 42.1224 87.8709 42.1224 87.8709C42.2008 87.8455 42.2791 87.8201 42.3575 87.7946C42.2008 87.8455 42.1224 87.8709 42.0705 87.8445C41.9667 87.7916 41.9413 87.7132 42.3066 87.6379L42.0481 87.3753L42.1265 87.3499C42.101 87.2715 41.9972 87.2186 41.9453 87.1921L41.9718 87.1403C41.9453 87.1922 41.8934 87.1657 41.8934 87.1657C41.8934 87.1657 41.8415 87.1392 41.8151 87.1911C41.9199 87.1138 41.9464 87.0619 41.6848 87.1901C41.868 87.0873 41.8945 87.0354 42.0512 86.9845C41.8426 87.009 42.2354 86.7515 41.7652 86.9041C41.9484 86.8014 42.0003 86.8278 42.1051 86.7505C42.0532 86.724 41.9484 86.8014 42.0532 86.724C42.1581 86.6467 42.21 86.6731 42.2883 86.6477C42.2364 86.6212 42.0013 86.6976 41.6614 86.8512C41.636 86.7729 41.5841 86.7464 41.5057 86.7718C41.5322 86.7199 41.5332 86.5897 41.2717 86.7179C41.35 86.6925 41.2981 86.666 41.2981 86.666L41.4029 86.5887C41.2462 86.6395 41.6421 85.9913 41.1729 86.0137C41.1994 85.9618 41.2513 85.9882 41.3297 85.9628C41.2778 85.9363 41.2259 85.9099 41.2259 85.9099C41.4091 85.8071 41.5403 85.6778 41.5403 85.6778C41.5668 85.6259 41.6187 85.6524 41.6971 85.627C42.038 85.343 41.3307 85.8325 41.2269 85.7796C41.4101 85.6768 41.75 85.5232 41.7764 85.4712C41.9077 85.342 41.0458 85.6219 41.4121 85.4163C41.3857 85.4682 41.3338 85.4417 41.3073 85.4936C41.2819 85.4153 41.2819 85.4153 41.1516 85.4143C41.178 85.3624 41.1781 85.3623 40.9694 85.3868C40.9959 85.3349 41.0478 85.3613 41.0743 85.3094C40.944 85.3084 40.8137 85.3074 40.5267 85.3572C41.4946 84.8698 39.9538 85.3267 40.8168 84.9166L40.7394 84.8118L40.8178 84.7863C40.8188 84.6561 40.6356 84.7589 40.4006 84.8352C40.427 84.7833 40.5573 84.7843 40.5837 84.7324C40.6896 84.5248 40.6631 84.5767 40.3242 84.6001C40.3242 84.6001 40.3242 84.6001 40.3507 84.5482L40.5074 84.4973C40.3507 84.5482 40.9013 84.1096 40.484 84.1584C40.484 84.1584 40.5624 84.133 40.6407 84.1075C40.2235 84.1564 41.3236 83.4094 40.2255 83.8959L39.9385 83.9457C39.9121 83.9976 39.8856 84.0495 39.8073 84.075C39.9121 83.9976 40.1217 83.8429 40.1472 83.9213C40.2785 83.7921 40.1217 83.8429 39.9131 83.8674C39.9396 83.8155 39.8877 83.789 39.9925 83.7116C40.1492 83.6608 40.2795 83.6618 40.2795 83.6618L40.1757 83.6089L40.1492 83.6608C40.1492 83.6608 40.1492 83.6608 40.0973 83.6343C39.9426 83.4247 40.1798 83.0878 40.1034 82.8527L39.6587 83.0837L39.6333 83.0054C39.7381 82.928 39.9732 82.8517 39.9467 82.9036C40.1564 82.7489 39.6862 82.9016 39.6078 82.927C39.7656 82.7459 40.1045 82.7225 40.1309 82.6706L40.079 82.6441L40.0526 82.696C39.8439 82.7204 39.6608 82.8232 39.6872 82.7713C39.7401 82.6675 39.9488 82.6431 39.9752 82.5912C39.9752 82.5912 40.0017 82.5393 39.9752 82.5912L39.9762 82.4609L39.6618 82.693C39.505 82.7438 39.6363 82.6146 39.27 82.8202C39.7676 82.4853 39.2995 82.3775 39.4827 82.2747C39.1957 82.3245 39.1702 82.2462 39.1967 82.1943C39.1702 82.2462 39.0919 82.2716 39.0135 82.2971L39.04 82.2452C39.4847 82.0142 39.1458 82.0376 39.617 81.7546C39.2506 81.9602 39.4094 81.6488 39.0166 81.9063C39.1214 81.8289 39.2781 81.778 39.4613 81.6753C39.1224 81.6987 39.5163 81.3109 39.3606 81.2316C39.2822 81.257 39.099 81.3598 38.9423 81.4107L39.4135 81.1278C39.3616 81.1013 38.812 81.4096 39.1265 81.1776C39.1 81.2295 39.0217 81.255 38.9698 81.2285C38.9962 81.1766 38.9708 81.0982 38.9454 81.0199C38.9199 80.9415 38.868 80.915 38.8426 80.8367L38.9474 80.7593C38.9474 80.7593 38.869 80.7848 38.7388 80.7838C38.6095 80.6525 38.4803 80.5212 38.9525 80.108C38.7693 80.2108 38.7693 80.2108 38.7174 80.1844C38.691 80.2363 38.5342 80.2871 38.3775 80.338L38.6401 80.0795C38.3002 80.2332 38.4844 80.0001 38.2493 80.0765C38.2238 79.9981 38.2238 79.9981 38.1984 79.9197C38.0702 79.6582 38.0203 79.3712 38.4661 79.0099C38.2829 79.1127 38.231 79.0863 38.2055 79.0079C38.1791 79.0598 37.9186 79.0578 37.7618 79.1087L38.1292 78.7728C37.712 78.8217 38.0529 78.5377 37.6357 78.5866L37.7395 78.6395C37.2184 78.6354 36.7208 78.9702 36.0684 79.0954C36.6414 79.1259 35.3611 79.5849 36.1946 79.6175C36.0898 79.6948 35.986 79.6419 35.8293 79.6928C36.0898 79.6948 36.1936 79.7477 36.0623 79.877L35.9839 79.9024C36.0857 80.2158 35.928 80.397 35.8465 80.8132L36.16 80.7115C36.1071 80.8153 36.0287 80.8407 36.0022 80.8926C36.4714 80.8702 35.9778 80.684 36.4734 80.6097C35.872 80.8916 36.5996 81.1318 35.9982 81.4137C36.049 81.5704 36.3381 81.26 36.337 81.3903L36.1539 81.493L36.3889 81.4167C36.4144 81.4951 36.1528 81.6233 35.9961 81.6742C35.9961 81.6742 35.9442 81.6477 35.8923 81.6213C35.7346 81.8024 36.0724 81.9093 35.9941 81.9347L36.0735 81.779C36.2546 81.9367 36.279 82.1454 36.3553 82.3805C36.4327 82.4853 36.51 82.5901 36.7176 82.6959L36.8225 82.6186C36.8744 82.6451 36.9262 82.6715 36.9781 82.698C37.0036 82.7763 36.8204 82.8791 37.0016 83.0369L36.9497 83.0104C37.028 82.985 37.0799 83.0114 37.1318 83.0379C37.1053 83.0898 37.0535 83.0633 37.027 83.1152C37.1054 83.0898 37.1573 83.1163 37.1573 83.1163L37.2092 83.1427C37.0005 83.1671 36.9466 83.4012 36.7644 83.3737C37.0504 83.4541 37.0504 83.4541 37.3374 83.4043C37.3893 83.4307 37.4676 83.4053 37.5195 83.4317L37.4147 83.5091L37.4931 83.4836C37.4666 83.5355 37.3883 83.561 37.3099 83.5864C37.4666 83.5355 37.545 83.5101 37.6233 83.4847C37.7017 83.4592 37.7536 83.4857 37.8055 83.5121C37.7007 83.5895 37.6223 83.6149 37.5959 83.6668C37.5175 83.6923 37.4127 83.7696 37.2824 83.7686C37.0982 84.0016 37.2804 84.0291 37.3842 84.082L37.3058 84.1075L37.3842 84.082C37.488 84.135 37.5663 84.1095 37.3302 84.3161C37.3302 84.3161 37.3038 84.368 37.2519 84.3415C37.3302 84.3161 37.3302 84.3161 37.4086 84.2907C37.4605 84.3171 37.146 84.5491 37.3028 84.4983C37.2254 84.3934 37.6427 84.3446 37.8004 84.1635C37.8523 84.1899 37.8788 84.138 37.8788 84.138C37.8004 84.1635 37.7475 84.2673 37.6691 84.2927C37.4595 84.4474 37.1979 84.5756 37.3017 84.6285C37.2498 84.6021 37.433 84.4993 37.5378 84.4219L37.5114 84.4738C37.4849 84.5257 37.3801 84.6031 37.2753 84.6804C37.3272 84.7069 37.4055 84.6814 37.432 84.6295C37.4839 84.656 37.6142 84.657 37.5348 84.8127C37.6915 84.7618 37.7434 84.7883 37.7434 84.7883L37.5867 84.8392C37.8218 84.7629 37.7953 84.8148 37.7424 84.9186C37.6905 84.8921 37.6386 84.8657 37.5083 84.8646C37.3506 85.0458 37.951 84.8942 37.4544 85.0987C37.5327 85.0733 37.6111 85.0478 37.6895 85.0224C37.5582 85.1516 37.7149 85.1007 37.7403 85.1791L37.7668 85.1272L37.8187 85.1537C37.7922 85.2056 37.8177 85.2839 37.9479 85.2849C37.7912 85.3358 37.6864 85.4132 37.5561 85.4121L37.8167 85.4142L37.7902 85.4661C37.7902 85.4661 37.7902 85.4661 37.8421 85.4925C37.7637 85.518 37.7373 85.5699 37.6325 85.6472C37.606 85.6991 37.5541 85.6727 37.5276 85.7246C37.5012 85.7765 37.6314 85.7775 37.7617 85.7785C37.7352 85.8304 37.7088 85.8823 37.6823 85.9342L37.604 85.9597C37.604 85.9597 37.6559 85.9861 37.6823 85.9342C37.6559 85.9861 37.6294 86.038 37.7078 86.0126C37.6823 85.9342 37.6823 85.9342 37.7088 85.8823C37.7871 85.8569 37.8136 85.805 37.8655 85.8314L37.7088 85.8823C37.7352 85.8304 37.8136 85.805 37.892 85.7795C37.892 85.7795 37.892 85.7795 37.8655 85.8314C37.9439 85.806 37.9439 85.806 37.9958 85.8324C37.9693 85.8843 37.838 86.0136 37.9418 86.0665C37.837 86.1439 37.8105 86.1958 37.7841 86.2477L37.7057 86.2731C37.7057 86.2731 37.7576 86.2996 37.7841 86.2477C37.7576 86.2996 37.8095 86.326 37.835 86.4044C37.7831 86.3779 37.836 86.2741 37.9408 86.1968C37.9408 86.1968 37.9673 86.1449 38.0192 86.1713L38.0975 86.1459C38.0711 86.1978 38.0711 86.1978 38.0446 86.2497C38.0181 86.3016 37.9652 86.4054 37.8869 86.4308C37.7301 86.4817 37.7566 86.4298 37.4951 86.558C37.7566 86.4298 37.835 86.4044 37.8869 86.4308C37.8869 86.4308 37.8869 86.4308 37.9388 86.4573C37.9907 86.4838 37.9896 86.614 38.4079 86.4349L38.3295 86.4604L38.2777 86.4339C38.0945 86.5367 38.2512 86.4858 38.4079 86.4349C38.4598 86.4614 38.643 86.3586 38.7478 86.2813L38.7997 86.3077C38.7733 86.3596 38.6684 86.437 38.5901 86.4624L38.5117 86.4878L38.6939 86.5153L38.354 86.669C38.5626 86.6446 38.6145 86.671 38.588 86.7229C38.4832 86.8003 38.5616 86.7748 38.5616 86.7748C38.5616 86.7748 38.5351 86.8267 38.587 86.8532C38.6135 86.8013 38.6918 86.7759 38.7702 86.7504C38.7702 86.7504 38.7956 86.8288 38.6908 86.9061L38.5606 86.9051C38.1158 87.1361 38.3245 87.1117 38.0883 87.3183C38.1667 87.2928 38.3763 87.1381 38.586 86.9835C38.5331 87.0873 38.5585 87.1656 38.6104 87.1921L38.5321 87.2175C38.5321 87.2175 38.584 87.244 38.6104 87.1921C38.6623 87.2185 38.6623 87.2185 38.6623 87.2185L38.6888 87.1666L38.7671 87.1412L38.9758 87.1168C38.8709 87.1941 38.6878 87.2969 38.5046 87.3997C38.5036 87.5299 38.9239 87.0903 39.0796 87.1697C39.0796 87.1697 39.0796 87.1697 39.0531 87.2216C39.0266 87.2735 38.9747 87.247 38.9747 87.247C38.9747 87.247 39.0266 87.2735 39.105 87.2481C39.105 87.2481 39.1569 87.2745 39.2353 87.2491C39.0256 87.4038 38.7905 87.4801 38.6603 87.4791L39.0246 87.534C38.9981 87.5859 38.8933 87.6633 38.8669 87.7152C38.815 87.6887 38.7885 87.7406 38.7101 87.7661C38.762 87.7925 38.7885 87.7406 38.8404 87.7671C38.8139 87.819 38.7356 87.8444 38.7356 87.8444C38.6562 88.0001 39.0999 87.8994 39.2556 87.9788C39.2556 87.9788 39.2556 87.9788 39.281 88.0571C39.3594 88.0317 39.3594 88.0317 39.4113 88.0581C39.3849 88.11 39.4367 88.1365 39.4103 88.1884C39.3838 88.2403 39.3838 88.2403 39.3574 88.2922C39.3309 88.3441 39.3309 88.3441 39.5395 88.3197C39.5395 88.3197 39.4347 88.397 39.3563 88.4225C39.278 88.4479 39.2515 88.4998 39.2515 88.4998C39.1732 88.5253 39.1213 88.4988 39.0429 88.5242C39.0948 88.5507 39.1732 88.5252 39.2251 88.5517L39.2515 88.4998C39.4082 88.4489 39.7227 88.2169 39.9049 88.2444C39.9568 88.2708 39.9568 88.2708 39.9568 88.2708L39.6433 88.3726L39.8001 88.3217C39.6952 88.3991 39.565 88.398 39.4866 88.4235C39.7217 88.3472 40.2173 88.2729 39.8774 88.4266C39.7471 88.4255 39.8255 88.4001 39.7736 88.3736L39.5385 88.45C39.0948 88.5507 39.2515 88.4998 38.8597 88.627C39.3299 88.4744 39.3818 88.5008 39.3818 88.5008C39.4337 88.5273 39.4337 88.5273 39.6942 88.5293C39.6159 88.5548 39.6159 88.5548 39.6678 88.5812L39.6413 88.6331L39.511 88.6321L39.6413 88.6331L39.5619 88.7888C39.5619 88.7888 39.5619 88.7888 39.6138 88.8153C39.2495 88.7603 39.3533 88.8133 38.989 88.7583C39.0928 88.8112 39.3533 88.8133 39.5873 88.8672C39.7695 88.8947 40.0036 88.9486 40.1338 88.9496L40.0555 88.9751C40.0819 88.9232 40.1338 88.9496 40.1338 88.9496L40.1074 89.0015L39.5873 88.8672C39.7695 88.8947 39.9252 88.9741 40.1074 89.0015C39.9252 88.9741 39.6912 88.9201 39.4571 88.8662C39.4052 88.8397 39.795 88.973 40.0809 89.0534C40.1847 89.1064 40.2631 89.0809 40.315 89.1074C40.1847 89.1064 40.2366 89.1328 40.3923 89.2122L40.3659 89.2641C40.314 89.2377 40.2621 89.2112 40.2102 89.1847L40.4178 89.2906C40.4178 89.2906 40.3913 89.3425 40.4697 89.317L40.7292 89.4493C40.6773 89.4229 40.5735 89.37 40.5216 89.3435C40.5735 89.37 40.6254 89.3964 40.7292 89.4493L40.7027 89.5012C40.7027 89.5012 40.7292 89.4493 40.7811 89.4758C40.833 89.5023 40.833 89.5023 40.8849 89.5287C40.8065 89.5542 40.7801 89.6061 40.7282 89.5796C40.6763 89.5531 40.6763 89.5531 40.6244 89.5267C40.6763 89.5531 40.6763 89.5531 40.7282 89.5796C40.5969 89.7088 40.5185 89.7343 40.5704 89.7607C40.3872 89.8635 40.3089 89.889 40.257 89.8625L40.2295 90.0447C40.1521 89.9398 40.1521 89.9398 39.971 89.7821C39.9975 89.7302 40.0758 89.7048 40.1542 89.6793C40.0758 89.7048 39.9975 89.7302 39.9191 89.7556C39.8672 89.7292 39.8418 89.6508 39.738 89.5979C39.6087 89.4666 39.7634 89.6763 39.9191 89.7556L39.8407 89.7811C39.6596 89.6233 39.6087 89.4666 39.6087 89.4666L39.4276 89.3089C39.6861 89.5714 39.7634 89.6763 39.8143 89.833C39.7878 89.8849 39.7878 89.8849 39.7614 89.9368L39.7359 89.8584C39.6586 89.7536 39.7095 89.9103 39.7868 90.0151C39.8122 90.0935 39.8122 90.0935 39.8122 90.0935C39.8122 90.0935 39.7603 90.067 39.7349 89.9887C39.7095 89.9103 39.6321 89.8055 39.6056 89.8574C39.4764 89.7261 39.2963 89.4381 39.451 89.6478C39.5283 89.7526 39.5792 89.9093 39.682 90.0925C39.7074 90.1708 39.6545 90.2747 39.6799 90.353C39.6545 90.2747 39.5772 90.1698 39.5517 90.0915C39.6291 90.1963 39.6799 90.353 39.6535 90.4049C39.628 90.3265 39.5507 90.2217 39.5252 90.1434C39.5517 90.0915 39.4998 90.065 39.5263 90.0131C39.5782 90.0396 39.5517 90.0915 39.6036 90.1179C39.5782 90.0396 39.5782 90.0396 39.5263 90.0131C39.5008 89.9347 39.4754 89.8564 39.397 89.8818C39.4235 89.8299 39.4744 89.9866 39.4998 90.065C39.397 89.8818 39.4265 89.4391 39.4784 89.4656C39.3726 89.6732 39.2668 89.8808 39.2647 90.1413L39.3431 90.1159C39.3685 90.1942 39.3421 90.2461 39.3675 90.3245C39.3685 90.1942 39.3421 90.2462 39.2891 90.35C39.2362 90.4538 39.2352 90.584 39.2087 90.6359L39.2372 90.3235C39.0826 90.1138 39.1802 90.9483 39.0256 90.7387L39.107 90.3225L39.0541 90.4263L39.0571 90.0355C38.9767 90.3215 38.9513 90.2431 38.8739 90.1383C38.8475 90.1902 38.8729 90.2685 38.8729 90.2685C38.8729 90.2685 38.8994 90.2166 38.8475 90.1902C38.8465 90.3204 38.7935 90.4242 38.7671 90.4761C38.7935 90.4242 38.7416 90.3978 38.7152 90.4497C38.7427 90.2675 38.7447 90.007 38.7946 90.294C38.7956 90.1637 38.822 90.1118 38.8231 89.9815C38.7467 89.7465 38.7193 89.9286 38.6409 89.9541C38.6409 89.9541 38.6928 89.9805 38.6663 90.0324L38.5065 90.4741C38.5065 90.4741 38.5065 90.4741 38.533 90.4222C38.5859 90.3184 38.6389 90.2146 38.5086 90.2136L38.5351 90.1617C38.5086 90.2136 38.5076 90.3438 38.4292 90.3693C38.4312 90.1087 38.4333 89.8482 38.4862 89.7444L38.3539 90.0039C38.3549 89.8737 38.2521 89.6905 38.3051 89.5867C38.2542 89.4299 38.1188 90.0802 38.016 89.8971C37.9896 89.949 38.015 90.0273 37.9631 90.0009C37.8593 89.9479 37.7576 89.6345 37.6507 89.9724L37.55 89.5286C37.4451 89.606 37.6497 90.1026 37.4919 90.2838C37.4125 90.4395 37.4431 89.8665 37.3657 89.7617C37.3118 89.9958 37.2558 90.4903 37.1286 90.0985C37.1815 89.9947 37.207 90.0731 37.2334 90.0212L37.1571 89.7861C37.2385 89.3699 37.2894 89.5266 37.2141 89.1613C37.2334 90.0212 36.9007 89.263 36.9719 90.1494L36.921 89.9927L36.9475 89.9408C36.8203 89.549 36.8905 90.5657 36.7612 90.4344C36.7358 90.356 36.6584 90.2512 36.7114 90.1474L36.6055 90.355C36.5536 90.3285 36.5546 90.1983 36.6065 90.2247L36.4498 90.2756C36.4488 90.4059 36.3949 90.6399 36.3684 90.6918C36.3175 90.5351 36.3694 90.5616 36.344 90.4832L36.29 90.7173C36.2137 90.4822 36.3196 90.2746 36.3715 90.301C36.2219 89.4401 36.3175 90.5351 36.113 90.0385L36.1659 89.9347C36.0916 89.4391 36.0641 89.6212 35.884 89.3332C35.9349 89.4899 36.1384 90.1168 36.0326 90.3244C36.0071 90.2461 35.9552 90.2196 35.9278 90.4018C35.9044 90.0629 35.8514 90.1667 35.7731 90.1921L35.7242 89.7749C35.6713 89.8787 35.6957 90.0873 35.6418 90.3214C35.5899 90.2949 35.5146 89.9296 35.4902 89.721C35.3864 89.668 35.6163 90.243 35.5115 90.3204C35.3823 90.1891 35.3548 90.3712 35.249 90.5788C35.1716 90.474 35.251 90.3183 35.1737 90.2135L35.1452 90.5259C35.1452 90.5259 35.1462 90.3957 35.0943 90.3692C35.0414 90.473 35.1431 90.7864 35.0902 90.8902C35.1126 91.3594 34.8348 90.2369 34.8307 90.7579C34.8052 90.6796 34.8327 90.4974 34.7818 90.3407C34.675 90.6786 34.7014 90.6267 34.62 91.0429L34.4918 90.7813C34.5936 91.0948 34.5386 91.4591 34.5101 91.7715C34.561 91.9283 34.56 92.0585 34.6119 92.085L34.506 92.2926C34.4806 92.2142 34.4816 92.084 34.5091 91.9018C34.4826 91.9537 34.4826 91.9537 34.5081 92.0321C34.4572 91.8753 34.4328 91.6667 34.4348 91.4062C34.4602 91.4846 34.4857 91.5629 34.5111 91.6413C34.5132 91.3808 34.5152 91.1202 34.4653 90.8333C34.4389 90.8852 34.4643 90.9635 34.4124 90.9371C34.387 90.8587 34.4134 90.8068 34.4399 90.7549C34.4664 90.703 34.4134 90.8068 34.4124 90.9371L34.3117 90.4933L34.3361 90.702L34.156 90.414C34.1 90.9086 34.0684 91.6118 33.9107 91.7929C33.8873 91.454 33.8629 91.2454 33.814 90.8282C33.9148 91.2719 33.9199 90.6205 34.0237 90.6735C33.9718 90.647 33.9474 90.4384 33.9738 90.3865L33.8405 90.7762C33.8171 90.4374 33.7642 90.5412 33.7133 90.3844C33.8384 91.0368 33.6319 90.8007 33.5779 91.0347C33.5535 90.8261 33.5291 90.6175 33.6329 90.6704C33.4802 90.2002 33.6268 91.452 33.4477 91.0337C33.4477 91.0337 33.4996 91.0602 33.5006 90.9299C33.4731 91.1121 33.3439 90.9808 33.3713 90.7986C33.2156 90.7192 32.9541 90.8475 33.0019 91.395C32.9765 91.3166 32.9551 90.7172 32.9297 90.6388L32.9673 92.489C32.9449 92.0198 32.6671 90.8973 32.7475 90.6114C32.7221 90.533 32.6702 90.5065 32.5908 90.6622C32.6162 90.7406 32.7678 91.341 32.7414 91.3929C32.6152 90.8709 32.6132 91.1314 32.4605 90.6612C32.5379 90.766 32.6101 91.5222 32.5582 91.4957C32.5592 91.3655 32.4076 90.765 32.4341 90.7131L32.4544 91.4428C32.4554 91.3125 32.3811 90.8169 32.2784 90.6337C32.3292 90.7905 32.1481 90.6327 32.1735 90.7111L32.2763 90.8943C32.1206 90.8149 32.32 91.9628 32.1379 91.9354C32.1389 91.8051 32.0148 91.0225 31.9374 90.9177C31.9608 91.2566 32.1318 92.7169 32.0514 93.0029L31.975 92.7678L31.9211 93.0019C31.8733 92.4544 31.8306 91.2555 31.8082 90.7864C31.7054 90.6032 31.7319 90.5513 31.6535 90.5767C31.5507 90.3935 31.6301 90.2378 31.682 90.2643L31.4744 90.1585C31.5751 90.6022 31.4184 90.6531 31.5202 90.9665L31.6281 90.4984C31.7288 90.9421 31.7227 91.7237 31.6189 91.6707C31.568 91.514 31.4947 90.8881 31.4439 90.7314C31.4428 90.8617 31.3635 91.0174 31.338 90.939L31.3401 90.6785C31.2108 90.5472 31.3614 91.2779 31.1558 90.9115C31.1039 90.8851 30.9513 90.4149 30.9757 90.6235C31.1284 91.0937 31.455 92.6335 31.5303 92.9988C31.5303 92.9988 31.2993 92.5541 31.223 92.319C31.0958 91.9272 31.0999 91.4061 30.9981 91.0927C30.9971 91.2229 31.048 91.3797 31.0215 91.4316C30.9442 91.3268 30.9462 91.0662 30.9197 91.1181C31.0205 91.5618 30.7895 91.1171 30.995 91.4835C30.9421 91.5873 30.8912 91.4306 30.8129 91.456C30.9411 91.7175 30.9614 92.4472 30.9085 92.551C30.9095 92.4208 30.8322 92.3159 30.8068 92.2376C30.6765 92.2366 30.5218 92.0269 30.417 92.1042C30.3915 92.0259 30.2623 91.8946 30.2898 91.7124C30.3152 91.7908 30.3142 91.9211 30.2877 91.973C30.1341 91.6331 30.3407 91.8692 30.1616 91.4509C30.2379 91.686 30.1585 91.8417 30.131 92.0238C30.2582 92.4157 30.3132 92.0513 30.2623 91.8946C30.3885 92.4167 30.4618 93.0425 30.4078 93.2766C30.3284 93.4323 30.2541 92.9367 30.2796 93.0151C30.0455 92.9611 30.3762 93.9798 30.0923 93.6389C29.9387 93.299 29.9153 92.9601 29.8389 92.725C29.9183 92.5693 30.0201 92.8828 30.0984 92.8573L29.9692 92.726C29.9702 92.5958 30.0231 92.492 30.0486 92.5703C29.9204 92.3088 29.7097 92.5937 29.5031 92.3576C29.5021 92.4879 29.5011 92.6182 29.5784 92.723L29.6049 92.6711C29.7331 92.9326 29.6537 93.0883 29.7311 93.1931C29.7555 93.4018 29.727 93.7142 29.5977 93.5829L29.4705 93.1911C29.496 93.2695 29.6252 93.4008 29.5743 93.244C29.5988 93.4527 29.2914 92.7728 29.4176 93.2949L29.5458 93.5565C29.5702 93.7651 29.6191 94.1823 29.5153 94.1294C29.6689 94.4693 29.5417 94.0775 29.7209 94.4958C29.4644 93.9727 29.9295 94.4714 29.6211 93.9218C29.8257 94.4184 29.7758 94.1314 29.9814 94.4978C29.9305 94.3411 29.9051 94.2627 29.957 94.2892C29.9834 94.2373 29.9315 94.2108 29.958 94.1589C29.9325 94.0806 29.8806 94.0541 29.8552 93.9757C29.8053 93.6888 29.8837 93.6633 29.9112 93.4812C29.9631 93.5076 29.9621 93.6379 30.0129 93.7946L30.015 93.5341C30.1167 93.8475 30.246 93.9788 30.2185 94.161L30.2969 94.1355C30.4261 94.2668 30.4515 94.3452 30.4526 94.2149C30.5045 94.2414 30.4292 93.876 30.5055 94.1111L30.5594 93.877L30.5849 93.9554C30.7151 93.9564 30.7192 93.4354 31.0021 93.9066C31.0286 93.8547 31.0296 93.7244 31.1334 93.7773L31.2097 94.0124C31.2626 93.9086 31.4163 94.2485 31.3664 93.9615C31.57 94.5884 31.6524 94.0419 31.7817 94.1732L31.6799 93.8598C31.7318 93.8862 31.7847 93.7824 31.8641 93.6267L31.8142 93.3397C31.8163 93.0792 32.0473 93.5239 32.1521 93.4466C32.1511 93.5769 32.1256 93.4985 32.0737 93.472C32.3292 94.1254 32.26 92.9785 32.491 93.4232C32.492 93.2929 32.5439 93.3194 32.5694 93.3978C32.5948 93.4761 32.6467 93.5026 32.6202 93.5545C32.5948 93.4761 32.5694 93.3978 32.5694 93.3978C32.5694 93.3978 32.5958 93.3459 32.6487 93.2421L32.6986 93.529C32.7759 93.6339 32.6996 93.3988 32.6233 93.1637C32.6498 93.1118 32.6243 93.0334 32.6508 92.9815C32.777 93.5036 32.7302 92.8258 32.8563 93.3479C32.8584 93.0874 32.9886 93.0884 32.9144 92.5928C32.9398 92.6711 32.9398 92.6711 32.9133 92.723C32.9652 92.7495 32.9907 92.8279 33.0182 92.6457L33.0935 93.0111L33.0976 92.49C33.1739 92.7251 33.2247 92.8818 33.2227 93.1423C33.2787 92.6477 33.3021 92.9866 33.3581 92.492L33.356 92.7526C33.3825 92.7007 33.411 92.3882 33.4354 92.5969C33.5881 93.067 33.8781 92.6264 34.1356 93.0192C34.0369 92.315 34.2384 93.2024 34.215 92.8635C34.2139 92.9938 34.2394 93.0721 34.2383 93.2024C34.2648 93.1505 34.3167 93.177 34.3686 93.2034L34.3422 93.2553C34.3676 93.3337 34.4714 93.3866 34.4449 93.4385C34.4978 93.3347 34.5243 93.2828 34.447 93.178C34.4734 93.1261 34.4734 93.1261 34.4745 92.9958C34.5253 93.1525 34.4724 93.2563 34.4979 93.3347C34.5243 93.2828 34.5253 93.1525 34.5243 93.2828C34.5498 93.3612 34.5233 93.4131 34.5223 93.5433C34.6006 93.5179 34.5793 92.9185 34.5569 92.4493C34.6332 92.6844 34.6597 92.6325 34.6882 92.3201C34.7391 92.4768 34.7899 92.6335 34.737 92.7373C34.7889 92.7638 35.022 92.948 34.9731 92.5307C34.9986 92.6091 35.025 92.5572 35.0515 92.5053C35.025 92.5572 35.0769 92.5837 35.0505 92.6356L35.1034 92.5318C35.1553 92.5582 35.1553 92.5582 35.2336 92.5328L35.2082 92.4544C35.2123 91.9334 35.2611 92.3506 35.366 92.2733L35.3395 92.3252C35.5451 92.6915 35.367 92.143 35.6244 92.5359L35.5746 92.2489C35.5278 91.5711 35.7801 92.6152 35.8341 92.3812L35.7832 92.2244C35.8097 92.1725 35.8351 92.2509 35.8605 92.3293C35.886 92.4076 35.885 92.5379 35.9358 92.6946C35.9094 92.7465 35.9094 92.7465 35.8575 92.7201C35.9094 92.7465 35.9348 92.8249 35.9867 92.8513C36.0376 93.0081 36.0885 93.1648 36.062 93.2167C36.0875 93.295 36.061 93.3469 36.061 93.3469C36.1882 93.7388 36.0641 92.9562 36.117 92.8524C36.1414 93.061 36.1648 93.3999 36.2167 93.4263C36.2676 93.5831 36.3246 92.9582 36.4284 93.0111L36.4274 93.1414L36.4284 93.0111C36.4284 93.0111 36.4803 93.0376 36.4538 93.0895C36.4284 93.0111 36.4549 92.9592 36.403 92.9328L36.4569 92.6987L36.404 92.8025C36.4304 92.7506 36.405 92.6722 36.405 92.6722C36.4315 92.6203 36.5078 92.8554 36.5851 92.9602L36.5841 93.0905L36.637 92.9867C36.637 92.9867 36.6635 92.9348 36.6645 92.8045C36.6899 92.8829 36.6899 92.8829 36.6635 92.9348C36.6899 92.8829 36.6899 92.8829 36.7164 92.831C36.7164 92.831 36.7418 92.9094 36.7927 93.0661C36.7174 92.7007 36.8731 92.7801 36.925 92.8066C36.9505 92.8849 37.0288 92.8595 37.0553 92.8076C37.1326 92.9124 37.1591 92.8605 37.2609 93.174C37.2619 93.0437 37.1845 92.9389 37.2883 92.9918L37.3148 92.9399L37.3932 92.9145L37.4186 92.9928C37.4186 92.9928 37.4186 92.9928 37.444 93.0712C37.444 93.0712 37.444 93.0712 37.5224 93.0457C37.5224 93.0457 37.5224 93.0457 37.4705 93.0193C37.5224 93.0457 37.5489 92.9938 37.5753 92.9419C37.6008 93.0203 37.5997 93.1506 37.5743 93.0722C37.5723 93.3327 37.7056 92.943 37.6282 92.8381C37.6801 92.8646 37.6801 92.8646 37.7056 92.943L37.6791 92.9949L37.8094 92.9959C37.9122 93.1791 38.016 93.232 38.017 93.1017C38.0689 93.1282 38.0954 93.0763 38.0699 92.9979C38.1473 93.1028 38.2256 93.0773 38.2785 92.9735C38.2521 93.0254 38.2775 93.1038 38.2775 93.1038C38.4627 92.7405 38.6622 93.8884 38.7477 92.9511L38.7996 92.9776C38.7477 92.9511 38.7741 92.8992 38.7222 92.8728L38.7487 92.8209L38.8016 92.7171C38.8535 92.7435 38.879 92.8219 38.9563 92.9267C39.0347 92.9013 39.0611 92.8494 39.1914 92.8504C39.2433 92.8768 39.3217 92.8514 39.4255 92.9043L39.5018 93.1394C39.6066 93.0621 39.9689 93.3776 39.9964 93.1954C40.3556 93.9017 40.8288 93.3582 41.2176 93.6218L41.0639 93.2819C41.2461 93.3094 41.3763 93.3104 41.4812 93.2331C41.4812 93.2331 41.4547 93.285 41.5066 93.3114C41.5331 93.2595 41.5331 93.2595 41.4812 93.2331C41.5076 93.1812 41.5595 93.2076 41.586 93.1557L40.9092 93.0723C40.9357 93.0204 41.0141 92.9949 41.0151 92.8647C41.0405 92.943 40.9876 93.0468 41.013 93.1252C41.1718 92.8138 41.3499 93.3623 41.5331 93.2595C41.5331 93.2595 41.5595 93.2076 41.5076 93.1812C41.5595 93.2076 41.5595 93.2076 41.6114 93.2341L41.6104 93.3644C41.6104 93.3644 41.6369 93.3125 41.6633 93.2606C42.0775 93.6025 42.1823 93.5252 42.2098 93.343C42.2892 93.1873 42.2383 93.0306 42.7563 93.4254C42.7309 93.3471 42.7828 93.3735 42.8347 93.4C42.8601 93.4784 42.8601 93.4784 42.8855 93.5567C42.912 93.5048 42.8601 93.4784 42.8866 93.4265C42.9385 93.4529 42.9904 93.4794 43.0423 93.5058L43.0942 93.5323C43.1461 93.5588 43.1461 93.5588 43.198 93.5852L43.1715 93.6371L43.2224 93.7939L43.2234 93.6636C43.3272 93.7165 43.431 93.7694 43.4565 93.8478C43.3527 93.7949 43.2753 93.6901 43.2234 93.6636L43.2499 93.6117L43.2234 93.6636C43.1715 93.6371 43.1715 93.6371 43.1196 93.6107C43.1715 93.6371 43.2499 93.6117 43.2244 93.5333L43.3282 93.5862L43.3018 93.6382L43.3282 93.5862L43.7679 94.0066C44.0528 94.2172 43.6905 93.9017 43.2763 93.5598L43.3293 93.456C43.718 93.7196 43.1491 93.168 44.0813 93.9048C43.6936 93.5109 44.1872 93.6972 43.4107 93.0398C43.6183 93.1456 43.8778 93.2779 43.5929 93.0672L44.5515 93.7522C44.5515 93.7522 44.3184 93.5679 44.06 93.3054C43.775 93.0947 43.5684 92.8586 43.5684 92.8586C44.2421 93.3329 44.6309 93.5964 45.2262 94.0961C44.8385 93.7023 44.7866 93.6758 44.7611 93.5975C44.7357 93.5191 44.6319 93.4662 44.1658 93.0978L44.7876 93.5456C44.8395 93.572 44.0885 92.993 44.6848 93.3624C44.8405 93.4418 44.9698 93.5731 45.1255 93.6524C45.5407 93.8641 45.5152 93.7858 45.5936 93.7603C45.62 93.7084 45.6719 93.7349 45.7503 93.7094C45.8022 93.7359 45.8806 93.7105 45.9325 93.7369C45.9844 93.7634 45.9844 93.7634 46.0363 93.7898C46.0363 93.7898 46.0882 93.8163 46.1146 93.7644C44.6624 92.8932 46.6601 93.9771 45.4674 93.2382C45.8307 93.4235 45.9864 93.5029 46.3233 93.74C45.962 93.2942 46.7405 93.6911 45.73 92.9798ZM39.4287 82.5087L39.3504 82.5342C39.2455 82.6115 39.3239 82.5861 39.4287 82.5087ZM29.6171 94.4429C29.6944 94.5477 29.669 94.4693 29.6171 94.4429V94.4429ZM33.757 91.453C33.758 91.3227 33.7835 91.4011 33.8608 91.5059C33.8344 91.5578 33.7825 91.5314 33.757 91.453ZM35.4057 90.528C35.4321 90.4761 35.4861 90.242 35.4586 90.4242C35.5339 90.7895 35.483 90.6328 35.4057 90.528ZM43.7598 91.7137L43.9928 91.8979C43.9409 91.8715 43.7852 91.7921 43.6295 91.7127L43.656 91.6608L43.7598 91.7137ZM40.0687 90.6166C40.1206 90.6431 40.146 90.7214 40.146 90.7214C40.0931 90.8252 40.0931 90.8252 40.0687 90.6166ZM39.9354 91.0064C39.9099 90.928 39.9109 90.7977 39.8855 90.7194C39.9883 90.9026 40.0137 90.9809 39.9354 91.0064ZM40.4025 91.2445C40.4025 91.2445 40.3506 91.2181 40.377 91.1662C40.3516 91.0878 40.378 91.0359 40.3526 90.9575C40.4045 90.984 40.4299 91.0624 40.4818 91.0888C40.4554 91.1407 40.4289 91.1926 40.4025 91.2445ZM39.8122 90.0935C39.8906 90.0681 39.969 90.0426 39.969 90.0426C40.0728 90.0955 40.1501 90.2004 40.202 90.2268C40.0463 90.1474 39.969 90.0426 40.1236 90.2523L40.0453 90.2777C40.0453 90.2777 40.0453 90.2777 39.9934 90.2512C39.9934 90.2512 39.9934 90.2512 40.0453 90.2777L39.9669 90.3031C39.9415 90.2248 39.8377 90.1719 39.8122 90.0935ZM39.7858 90.1454C39.8896 90.1983 39.8377 90.1719 39.7858 90.1454V90.1454ZM39.7431 88.9466C39.795 88.973 39.8733 88.9476 39.8733 88.9476L39.795 88.973C39.7431 88.9466 39.7431 88.9466 39.7431 88.9466ZM39.8204 89.0514C39.7685 89.0249 39.7685 89.0249 39.8204 89.0514C39.742 89.0768 39.742 89.0768 39.8204 89.0514C39.742 89.0768 39.742 89.0768 39.7685 89.0249C39.7685 89.0249 39.7685 89.0249 39.8204 89.0514ZM40.2376 89.0026C40.1593 89.028 40.1593 89.028 40.1074 89.0015C40.1857 88.9761 40.1857 88.9761 40.2376 89.0026ZM40.1857 88.9761C40.1593 89.028 40.1593 89.028 40.1857 88.9761C40.1074 89.0015 40.1074 89.0015 40.0555 88.9751C40.0555 88.9751 40.0819 88.9232 40.1338 88.9496L40.1857 88.9761ZM40.0555 88.9751C40.0036 88.9486 40.0036 88.9486 40.0555 88.9751C40.029 89.027 39.9771 89.0005 39.9771 89.0005L39.9252 88.9741L40.0555 88.9751C40.0036 88.9486 40.0555 88.9751 40.0555 88.9751ZM40.5327 91.2455L40.5337 91.1153C40.5337 91.1153 40.5337 91.1153 40.5856 91.1417C40.5073 91.1672 40.4808 91.2191 40.5327 91.2455ZM40.1755 90.2787C40.2274 90.3052 40.2274 90.3052 40.3312 90.3581C40.3312 90.3581 40.3312 90.3581 40.3048 90.41C40.201 90.3571 40.1755 90.2787 40.1755 90.2787ZM40.202 90.2268C40.2539 90.2533 40.3058 90.2797 40.3058 90.2797C40.3058 90.2797 40.3058 90.2797 40.202 90.2268L40.3058 90.2797C40.3058 90.2797 40.2539 90.2533 40.202 90.2268ZM40.2529 90.3835C40.3048 90.41 40.3312 90.3581 40.2529 90.3835C40.3567 90.4365 40.5124 90.5159 40.5897 90.6207C40.5897 90.6207 40.5897 90.6207 40.5633 90.6726C40.5378 90.5942 40.5124 90.5159 40.2529 90.3835ZM42.4623 91.0522C42.4623 91.0522 42.5142 91.0787 42.4623 91.0522V91.0522ZM42.4887 91.0003C42.4368 90.9739 42.4368 90.9739 42.4887 91.0003V91.0003ZM41.0304 90.9107C40.9785 90.8843 40.9785 90.8843 41.0304 90.9107C41.0304 90.9107 41.0823 90.9372 41.1342 90.9637C41.0823 90.9372 41.0304 90.9107 41.0304 90.9107ZM40.8788 90.3103C40.9571 90.2849 40.9571 90.2848 40.9571 90.2848C41.1128 90.3642 41.2166 90.4172 41.3459 90.5484L41.3194 90.6003C41.2156 90.5474 41.1383 90.4426 41.1902 90.4691C41.0599 90.468 40.9561 90.4151 40.8788 90.3103ZM40.9052 90.2584C40.8533 90.2319 40.8533 90.2319 40.9052 90.2584C40.8533 90.2319 40.8798 90.18 40.9052 90.2584C40.9317 90.2065 40.9052 90.2584 40.9052 90.2584ZM41.6064 90.5505C41.4507 90.4711 41.3469 90.4182 41.295 90.3917C41.3988 90.4446 41.5026 90.4976 41.5545 90.524C41.3988 90.4446 41.295 90.3917 41.2431 90.3653C41.1393 90.3123 41.3469 90.4182 41.5545 90.524L41.1912 90.3388C41.1912 90.3388 41.2176 90.2869 41.2695 90.3134C41.3214 90.3398 41.4772 90.4192 41.6064 90.5505C41.6329 90.4986 41.6329 90.4986 41.6064 90.5505ZM41.0874 90.2859L41.0355 90.2594C40.9836 90.233 41.0355 90.2594 41.0874 90.2859C41.0619 90.2075 41.1138 90.234 41.1138 90.234C41.0874 90.2859 41.0874 90.2859 41.0874 90.2859ZM41.0619 90.2075C41.1138 90.234 41.1138 90.234 41.0619 90.2075V90.2075ZM40.9317 90.2065C40.9317 90.2065 40.9581 90.1546 41.01 90.181C40.9581 90.1546 40.9317 90.2065 40.9317 90.2065ZM40.8004 90.3357L41.241 90.6258C40.9042 90.3887 40.8258 90.4141 40.8004 90.3357ZM41.1606 90.9117L40.72 90.6217C40.8503 90.6227 40.9795 90.754 41.1606 90.9117ZM41.1606 90.9117C41.1606 90.9117 41.1342 90.9636 41.1606 90.9117C41.0049 90.8324 40.8492 90.753 40.72 90.6217L41.1606 90.9117ZM40.6681 90.5952C40.5124 90.5159 40.435 90.411 40.3312 90.3581L40.6681 90.5952ZM40.6935 90.6736C40.7973 90.7265 40.8228 90.8049 40.9266 90.8578C40.9266 90.8578 40.9266 90.8578 40.8747 90.8313C40.8492 90.753 40.7973 90.7265 40.6935 90.6736C40.7454 90.7001 40.6935 90.6736 40.6935 90.6736ZM43.4484 91.555L43.5003 91.5814L43.4484 91.555ZM42.1 90.7367C42.0735 90.7886 42.0735 90.7886 42.1 90.7367C42.0735 90.7886 42.0735 90.7886 42.1 90.7367C42.0481 90.7103 42.1 90.7367 42.1 90.7367ZM42.0481 90.7103C41.9697 90.7357 41.9697 90.7357 42.0481 90.7103C41.9962 90.6838 41.9962 90.6838 41.9962 90.6838C41.9962 90.6838 41.9962 90.6838 42.0481 90.7103ZM41.5036 90.3673L41.2176 90.2869C41.2176 90.2869 41.2176 90.2869 41.2441 90.235C41.296 90.2615 41.3998 90.3144 41.5036 90.3673ZM40.9846 90.1027C40.9581 90.1546 40.9062 90.1281 40.8798 90.18C40.8798 90.18 40.8543 90.1017 40.8024 90.0752C40.8024 90.0752 40.8289 90.0233 40.8808 90.0498C40.8808 90.0498 40.9327 90.0762 40.9846 90.1027ZM40.7241 90.1007C40.7241 90.1007 40.6976 90.1526 40.7241 90.1007C40.6976 90.1526 40.6976 90.1526 40.7241 90.1007C40.6976 90.1526 40.6976 90.1526 40.7241 90.1007ZM40.7495 90.179C40.7231 90.2309 40.7231 90.2309 40.7495 90.179C40.6712 90.2044 40.6712 90.2045 40.6193 90.178L40.6457 90.1261C40.6976 90.1525 40.6976 90.1525 40.7495 90.179ZM40.6193 90.178L40.7231 90.2309L40.6966 90.2828C40.6966 90.2828 40.6966 90.2828 40.6447 90.2563L40.5663 90.2818L40.6182 90.3083C40.5918 90.3602 40.5399 90.3337 40.5653 90.4121C40.5653 90.4121 40.5918 90.3602 40.6701 90.3347C40.722 90.3612 40.722 90.3612 40.722 90.3612C40.9296 90.467 41.0589 90.5983 41.2146 90.6777C41.2146 90.6777 41.2146 90.6777 41.1881 90.7296C41.0324 90.6502 41.007 90.5718 41.1108 90.6248C40.6182 90.3083 40.9032 90.5189 41.1881 90.7296L41.1617 90.7815C41.1098 90.755 41.1098 90.755 41.0579 90.7286C40.9541 90.6756 40.8503 90.6227 40.8757 90.7011C40.9276 90.7275 40.953 90.8059 41.1087 90.8853C40.953 90.8059 40.8238 90.6746 40.6681 90.5952L40.6945 90.5433L40.6681 90.5952C40.5124 90.5159 40.435 90.411 40.3831 90.3846C40.4361 90.2808 40.5144 90.2553 40.6193 90.178ZM40.4096 90.3327C40.4615 90.3591 40.5388 90.464 40.6945 90.5433L40.4096 90.3327C40.3577 90.3062 40.4096 90.3327 40.4096 90.3327ZM40.2529 90.3835C40.1491 90.3306 40.0972 90.3042 40.0972 90.3042C40.1755 90.2787 40.201 90.3571 40.2529 90.3835ZM40.2529 90.3835C40.3567 90.4365 40.4859 90.5678 40.6152 90.699C40.4595 90.6197 40.3302 90.4884 40.2529 90.3835ZM40.719 90.752C40.7709 90.7784 40.8228 90.8049 40.7963 90.8568C40.7963 90.8568 40.7963 90.8568 40.719 90.752C40.7444 90.8303 40.7709 90.7784 40.719 90.752ZM40.8218 90.9351L40.7699 90.9087L40.8218 90.9351ZM43.4484 91.555C43.4484 91.555 43.4748 91.5031 43.5267 91.5295L43.7079 91.6873L43.6814 91.7392C43.5522 91.6079 43.5003 91.5814 43.4484 91.555ZM42.9894 90.2747C43.0413 90.3012 43.0678 90.2493 43.1197 90.2757C43.0932 90.3276 43.0149 90.3531 42.9884 90.405C42.7289 90.2727 42.8592 90.2737 42.9894 90.2747ZM43.2245 90.1984L43.1726 90.1719C43.2255 90.0681 43.2774 90.0946 43.2245 90.1984ZM41.064 89.947C41.0375 89.9989 40.9856 89.9724 40.9856 89.9724C41.0121 89.9205 41.0121 89.9205 41.064 89.947ZM40.491 89.9164C40.491 89.9164 40.4646 89.9683 40.491 89.9164V89.9164ZM40.3343 89.9673L40.2559 89.9928C40.3078 90.0192 40.3078 90.0192 40.3343 89.9673C40.3862 89.9938 40.3862 89.9938 40.3343 89.9673C40.4646 89.9683 40.5165 89.9948 40.4381 90.0202L40.203 90.0966C40.1501 90.2004 40.4116 90.0721 40.49 90.0467C40.49 90.0467 40.4635 90.0986 40.3852 90.124C40.3852 90.124 40.2804 90.2014 40.2539 90.2533L40.1501 90.2004L40.3068 90.1495L40.0982 90.1739L39.8652 89.9897C40.0992 90.0436 40.2295 90.0447 40.3343 89.9673ZM40.0453 90.2777C40.0972 90.3042 40.1491 90.3306 40.1745 90.409C40.1745 90.409 40.1745 90.409 40.1481 90.4609C40.1226 90.3825 40.0707 90.3561 40.0453 90.2777ZM40.2264 90.4355C40.3302 90.4884 40.3557 90.5667 40.4595 90.6197C40.5114 90.6461 40.5368 90.7245 40.5887 90.7509C40.5114 90.6461 40.3557 90.5667 40.2264 90.4355ZM40.5612 90.9331L40.5348 90.985C40.4829 90.9586 40.4055 90.8537 40.3536 90.8273C40.3801 90.7754 40.3801 90.7754 40.4065 90.7235C40.4839 90.8283 40.5093 90.9066 40.5612 90.9331ZM43.4137 92.649C43.4656 92.6754 43.5175 92.7019 43.5175 92.7019C43.4656 92.6754 43.4137 92.649 43.4137 92.649ZM43.5318 90.8782C43.6102 90.8528 43.6102 90.8528 43.5318 90.8782C43.5318 90.8782 43.5054 90.9301 43.4789 90.982C43.3232 90.9026 43.6092 90.983 43.4799 90.8518L43.5318 90.8782ZM43.8239 90.177C43.772 90.1506 43.772 90.1506 43.8239 90.177C43.7975 90.2289 43.7191 90.2544 43.6926 90.3063C43.4311 90.4345 43.4056 90.3561 43.2489 90.407C43.2754 90.3551 43.4057 90.3561 43.5105 90.2788L43.2754 90.3551C43.3802 90.2778 43.485 90.2004 43.5899 90.1231C43.6418 90.1496 43.772 90.1506 43.8239 90.177ZM42.7676 88.6576C42.7157 88.6312 42.7157 88.6312 42.7676 88.6576V88.6576ZM38.4832 86.8003C38.4048 86.8257 38.2481 86.8766 38.3794 86.7474C38.7448 86.6721 38.588 86.7229 38.4832 86.8003ZM37.9418 86.0665C37.9154 86.1184 37.9154 86.1184 37.9418 86.0665V86.0665ZM37.6142 84.657C37.5623 84.6306 37.6406 84.6051 37.6406 84.6051C37.719 84.5797 37.7709 84.6061 37.8492 84.5807L37.6142 84.657ZM37.2539 84.081C37.3323 84.0556 37.3323 84.0556 37.3323 84.0556L37.2539 84.081ZM37.2804 84.0291C37.3068 83.9772 37.3068 83.9772 37.2804 84.0291C37.3068 83.9772 37.3587 84.0037 37.4371 83.9782L37.2804 84.0291ZM37.3079 83.8469C37.4127 83.7696 37.491 83.7442 37.6213 83.7452C37.6213 83.7452 37.6213 83.7452 37.5948 83.7971C37.4381 83.848 37.3598 83.8734 37.3079 83.8469ZM37.7434 84.7883C37.7699 84.7364 37.7699 84.7364 37.7434 84.7883C37.8218 84.7629 37.952 84.7639 37.952 84.7639C37.8737 84.7893 37.8218 84.7629 37.7434 84.7883C37.7169 84.8402 37.7169 84.8402 37.7688 84.8667C37.7424 84.9186 37.7424 84.9186 37.7424 84.9186C37.664 84.944 37.5073 84.9949 37.5073 84.9949C37.5073 84.9949 37.5338 84.943 37.6121 84.9176C37.5338 84.943 37.5338 84.943 37.4554 84.9684C37.4554 84.9684 37.4554 84.9684 37.4035 84.942C37.5083 84.8646 37.665 84.8138 37.7434 84.7883ZM37.7057 86.2731C37.7322 86.2212 37.837 86.1439 37.9154 86.1184L37.7057 86.2731ZM38.1168 87.0058C38.2217 86.9285 38.4048 86.8257 38.4832 86.8003C38.4567 86.8522 38.4303 86.9041 38.5351 86.8267C38.4303 86.9041 38.3519 86.9295 38.3519 86.9295C38.2736 86.955 38.1952 86.9804 38.353 86.7992C38.3 86.9031 38.2217 86.9285 38.1168 87.0058ZM39.3055 88.2657C39.279 88.3176 39.2271 88.2912 39.1487 88.3166L39.3055 88.2657ZM39.1202 88.6291C39.1986 88.6036 39.2505 88.6301 39.3808 88.6311L39.224 88.682C39.1721 88.6555 39.0938 88.681 39.1202 88.6291C39.0938 88.681 39.0938 88.681 39.1202 88.6291C39.0938 88.681 39.1202 88.6291 39.1202 88.6291ZM39.2739 88.969C39.222 88.9425 39.1436 88.9679 39.0917 88.9415C39.1182 88.8896 39.1447 88.8377 39.1192 88.7593L39.3278 88.7349L39.0673 88.7329C39.0673 88.7329 39.0673 88.7329 39.0938 88.681C39.3024 88.6565 39.7716 88.6342 39.7451 88.6861C39.6667 88.7115 39.5884 88.7369 39.4062 88.7095L39.7186 88.738C39.7186 88.738 39.51 88.7624 39.5365 88.7105L39.6922 88.7899L39.6403 88.7634L39.6922 88.7899C39.6922 88.7899 39.6922 88.7899 39.6657 88.8418C38.6501 88.7817 40.03 88.8967 39.3787 88.8916L39.2739 88.969ZM39.6382 89.0239C39.5863 88.9975 39.508 89.0229 39.6382 89.0239V89.0239ZM39.6891 89.1806L39.7675 89.1552C39.8194 89.1817 39.8194 89.1817 39.8713 89.2081C39.8448 89.26 39.7929 89.2336 39.6891 89.1806ZM39.8458 89.1298C39.8977 89.1562 39.8977 89.1562 39.8977 89.1562C39.8977 89.1562 39.8977 89.1562 39.8458 89.1298ZM39.8957 89.4168C39.9741 89.3913 39.9741 89.3913 39.9476 89.4432C39.9476 89.4432 39.9476 89.4432 39.8957 89.4168ZM40.0514 89.4961C40.1817 89.4972 40.2336 89.5236 40.3374 89.5765C40.2336 89.5236 40.1298 89.4707 40.0514 89.4961ZM40.545 89.6824C40.5969 89.7088 40.6488 89.7353 40.7526 89.7882C40.7261 89.8401 40.6742 89.8137 40.6478 89.8656C40.5959 89.8391 40.544 89.8126 40.6213 89.9175C40.5694 89.891 40.5175 89.8645 40.4137 89.8116C40.4401 89.7597 40.5185 89.7343 40.545 89.6824ZM40.3618 89.7852C40.4137 89.8116 40.5175 89.8645 40.5694 89.891L40.3872 89.8635C40.3872 89.8635 40.3872 89.8635 40.3608 89.9154L39.9435 89.9643C40.1002 89.9134 40.2051 89.836 40.3618 89.7852ZM39.6809 90.2228C39.7074 90.1708 39.7074 90.1708 39.6809 90.2228C39.7074 90.1708 39.7074 90.1708 39.6809 90.2228C39.7074 90.1708 39.7074 90.1708 39.6809 90.2228C39.7593 90.1973 39.7593 90.1973 39.7593 90.1973L39.8886 90.3286L39.9405 90.3551L39.9924 90.3815C39.8886 90.3286 40.0178 90.4599 40.2244 90.696L40.1979 90.7479C40.146 90.7214 40.1206 90.6431 40.0687 90.6166C40.0687 90.6166 40.0951 90.5647 40.0432 90.5382L40.0168 90.5901C39.8875 90.4589 39.7583 90.3276 39.7064 90.3011C39.7837 90.4059 39.8611 90.5108 39.9903 90.642C39.9639 90.6939 40.0158 90.7204 39.9893 90.7723C39.8346 90.5627 39.6799 90.353 39.5507 90.2217C39.4733 90.1169 39.3695 90.064 39.3176 90.0375L39.3441 89.9856C39.5263 90.0131 39.5782 90.0396 39.6809 90.2228ZM39.397 89.8818C39.4489 89.9083 39.4489 89.9083 39.397 89.8818V89.8818ZM39.163 89.8279C39.2149 89.8543 39.2149 89.8543 39.2403 89.9327C39.2149 89.8543 39.163 89.8279 39.163 89.8279ZM39.3176 90.0375C39.3176 90.0375 39.3441 89.9856 39.3176 90.0375C39.4988 90.1953 39.6799 90.353 39.7827 90.5362C39.7563 90.5881 39.7033 90.6919 39.6789 90.4833C39.6525 90.5352 39.6524 90.5352 39.6779 90.6135C39.6779 90.6135 39.626 90.5871 39.6525 90.5352C39.6525 90.5352 39.6789 90.4833 39.7054 90.4314C39.7064 90.3011 39.6535 90.4049 39.627 90.4568C39.627 90.4568 39.5751 90.4303 39.6016 90.3784C39.628 90.3265 39.5761 90.3001 39.629 90.1963C39.6026 90.2482 39.628 90.3266 39.628 90.3266C39.5507 90.2217 39.4214 90.0904 39.396 90.0121C39.2912 90.0894 39.2912 90.0894 39.3176 90.0375C39.3431 90.1159 39.3685 90.1942 39.4459 90.2991C39.394 90.2726 39.395 90.1423 39.3176 90.0375ZM39.2342 90.7143L39.2617 90.5321C39.2617 90.5321 39.3136 90.5586 39.2871 90.6105C39.2871 90.6105 39.2606 90.6624 39.2342 90.7143ZM39.2128 90.1149C39.3685 90.1943 39.3156 90.298 39.2383 90.1932L39.2128 90.1149C39.2383 90.1932 39.2383 90.1932 39.2128 90.1149ZM39.0307 90.0874C39.0307 90.0874 39.0826 90.1138 39.0561 90.1657C39.0826 90.1138 39.0826 90.1138 39.0307 90.0874ZM39.2362 90.4538C39.2098 90.5057 39.1833 90.5576 39.1833 90.5576L39.2362 90.4538ZM39.4927 90.9768C39.4418 90.8201 39.4397 91.0806 39.3889 90.9239C39.3634 90.8456 39.3899 90.7937 39.4163 90.7418C39.4937 90.8466 39.5446 91.0033 39.6219 91.1081C39.5954 91.16 39.569 91.2119 39.5425 91.2638L39.5171 91.1855L39.5425 91.2638C39.5161 91.3157 39.4896 91.3676 39.4377 91.3412L39.4123 91.2628C39.3868 91.1844 39.4397 91.0806 39.4927 90.9768ZM39.0266 90.6084C39.0001 90.6603 39.0001 90.6603 39.0266 90.6084C38.9747 90.582 38.9747 90.582 39.0266 90.6084C38.9747 90.582 38.9747 90.582 39.0266 90.6084ZM38.6633 90.4232C38.7152 90.4497 38.6887 90.5016 38.6633 90.4232C38.6887 90.5016 38.6633 90.4232 38.6633 90.4232ZM38.0608 90.8354C38.0099 90.6786 38.0618 90.7051 38.1147 90.6013C38.1137 90.7316 38.1392 90.8099 38.0608 90.8354ZM35.3588 93.1851C35.3334 93.1068 35.3334 93.1068 35.3588 93.1851C35.3334 93.1068 35.3069 93.1587 35.3588 93.1851ZM36.9759 92.9633C37.0024 92.9114 36.9769 92.833 37.0299 92.7292C37.0034 92.7811 37.0024 92.9114 36.9759 92.9633C37.0024 92.9114 37.0024 92.9114 36.9759 92.9633ZM37.2629 92.9134C37.2629 92.9134 37.2894 92.8615 37.2629 92.9134C37.3402 93.0183 37.3667 92.9664 37.2629 92.9134ZM41.6114 93.2341C41.6114 93.2341 41.6379 93.1822 41.6114 93.2341C41.6379 93.1822 41.6898 93.2087 41.6898 93.2087L41.7152 93.287C41.6633 93.2606 41.6114 93.2341 41.6114 93.2341ZM41.7152 93.287L41.7417 93.2351C41.7936 93.2616 41.7671 93.3135 41.7152 93.287ZM43.3812 93.4824C43.3293 93.456 43.3293 93.456 43.3038 93.3776C43.2519 93.3512 43.2784 93.2993 43.1746 93.2463C43.1746 93.2463 43.1746 93.2463 43.201 93.1944C43.3048 93.2474 43.3303 93.3257 43.3822 93.3522L43.3812 93.4824ZM43.3598 92.883C43.4636 92.936 43.5155 92.9624 43.4371 92.9879C43.4636 92.936 43.4117 92.9095 43.3598 92.883Z" fill="#CBECFF"/>
</svg>
